<svg width="43" height="43" viewBox="0 0 43 43" fill="none" xmlns="http://www.w3.org/2000/svg">
<rect width="43" height="43" rx="15" fill="#89B9AD"/>
<g clip-path="url(#clip0_33_494)">
<path d="M22.7028 11.6086C22.3836 11.2899 21.951 11.1108 21.5 11.1108C21.0489 11.1108 20.6163 11.2899 20.2972 11.6086L13.8758 18.0266C13.5565 18.3459 13.3771 18.779 13.3771 19.2305C13.3771 19.6821 13.5565 20.1152 13.8758 20.4345C14.1951 20.7538 14.6281 20.9332 15.0797 20.9332C15.5313 20.9332 15.9643 20.7538 16.2836 20.4345L19.7979 16.9214V30.0104C19.7979 30.4618 19.9772 30.8948 20.2964 31.214C20.6156 31.5332 21.0485 31.7125 21.5 31.7125C21.9514 31.7125 22.3843 31.5332 22.7035 31.214C23.0227 30.8948 23.202 30.4618 23.202 30.0104V16.9214L26.7151 20.4345C26.8733 20.5926 27.0609 20.718 27.2675 20.8036C27.4741 20.8891 27.6955 20.9332 27.9191 20.9332C28.1427 20.9332 28.3641 20.8891 28.5707 20.8036C28.7772 20.718 28.9649 20.5926 29.123 20.4345C29.2811 20.2764 29.4065 20.0887 29.4921 19.8821C29.5777 19.6755 29.6217 19.4541 29.6217 19.2305C29.6217 19.007 29.5777 18.7856 29.4921 18.579C29.4065 18.3724 29.2811 18.1847 29.123 18.0266L22.7028 11.6086Z" fill="white"/>
</g>
<defs>
<clipPath id="clip0_33_494">
<rect width="27.2333" height="27.2333" fill="white" transform="translate(7.8833 7.8833)"/>
</clipPath>
</defs>
</svg>
