<svg width="43" height="43" viewBox="0 0 43 43" fill="none" xmlns="http://www.w3.org/2000/svg">
<circle cx="21.5" cy="21.5" r="21.5" fill="#89B9AD"/>
<path d="M14.5271 26.7295H16.2703V30.2866L20.7164 26.7295H24.9865C25.9479 26.7295 26.7298 25.9476 26.7298 24.9862V18.0133C26.7298 17.0519 25.9479 16.27 24.9865 16.27H14.5271C13.5657 16.27 12.7838 17.0519 12.7838 18.0133V24.9862C12.7838 25.9476 13.5657 26.7295 14.5271 26.7295Z" fill="white"/>
<path d="M28.473 12.7836H18.0135C17.0521 12.7836 16.2703 13.5654 16.2703 14.5268H26.7297C27.6911 14.5268 28.473 15.3087 28.473 16.2701V23.243C29.4344 23.243 30.2162 22.4612 30.2162 21.4998V14.5268C30.2162 13.5654 29.4344 12.7836 28.473 12.7836Z" fill="white"/>
</svg>
