<svg width="167" height="51" viewBox="0 0 167 51" fill="none" xmlns="http://www.w3.org/2000/svg">
<path d="M21.9731 11.1376C21.9731 12.7493 21.5846 14.2602 20.8075 15.6704C20.0593 17.0806 18.8649 18.2174 17.2245 19.0808C15.6129 19.9442 13.5695 20.3759 11.0945 20.3759H6.04369V31.9452H0V1.81311H11.0945C13.4256 1.81311 15.4114 2.21602 17.0518 3.02184C18.6923 3.82767 19.9154 4.93568 20.7212 6.34587C21.5558 7.75606 21.9731 9.35332 21.9731 11.1376ZM10.8355 15.4977C12.5047 15.4977 13.7422 15.1236 14.548 14.3753C15.3538 13.5983 15.7568 12.5191 15.7568 11.1376C15.7568 8.20214 14.1163 6.73439 10.8355 6.73439H6.04369V15.4977H10.8355Z" fill="#89B9AD"/>
<path d="M31.9975 11.742C32.7745 10.4757 33.7818 9.48283 35.0193 8.76334C36.2856 8.04386 37.7246 7.68411 39.3362 7.68411V14.03H37.739C35.8395 14.03 34.4006 14.4761 33.4221 15.3682C32.4723 16.2604 31.9975 17.8145 31.9975 20.0305V31.9452H25.9538V8.02947H31.9975V11.742Z" fill="#89B9AD"/>
<path d="M53.7163 32.3337C51.4139 32.3337 49.3418 31.8301 47.4999 30.8228C45.658 29.7867 44.2047 28.3334 43.1398 26.4627C42.1038 24.592 41.5858 22.4336 41.5858 19.9873C41.5858 17.5411 42.1182 15.3826 43.183 13.512C44.2766 11.6413 45.7588 10.2023 47.6294 9.19504C49.5001 8.15898 51.5866 7.64095 53.889 7.64095C56.1913 7.64095 58.2778 8.15898 60.1485 9.19504C62.0192 10.2023 63.4869 11.6413 64.5518 13.512C65.6454 15.3826 66.1922 17.5411 66.1922 19.9873C66.1922 22.4336 65.631 24.592 64.5086 26.4627C63.415 28.3334 61.9184 29.7867 60.019 30.8228C58.1483 31.8301 56.0474 32.3337 53.7163 32.3337ZM53.7163 27.0671C54.8099 27.0671 55.8316 26.8081 56.7813 26.29C57.7598 25.7432 58.5369 24.9374 59.1124 23.8726C59.688 22.8077 59.9758 21.5126 59.9758 19.9873C59.9758 17.7138 59.3715 15.9726 58.1627 14.7639C56.9828 13.5263 55.5294 12.9076 53.8026 12.9076C52.0759 12.9076 50.6225 13.5263 49.4425 14.7639C48.2914 15.9726 47.7158 17.7138 47.7158 19.9873C47.7158 22.2609 48.277 24.0165 49.3994 25.254C50.5506 26.4627 51.9895 27.0671 53.7163 27.0671Z" fill="#89B9AD"/>
<path d="M68.7611 19.901C68.7611 17.4835 69.236 15.3395 70.1857 13.4688C71.1642 11.5981 72.488 10.1591 74.1572 9.15187C75.8265 8.14459 77.6827 7.64095 79.7261 7.64095C81.2802 7.64095 82.7623 7.9863 84.1725 8.677C85.5827 9.33893 86.7051 10.2311 87.5397 11.3535V0H93.6697V31.9452H87.5397V28.4053C86.7914 29.5853 85.741 30.535 84.3883 31.2545C83.0357 31.974 81.4672 32.3337 79.6829 32.3337C77.6683 32.3337 75.8265 31.8157 74.1572 30.7796C72.488 29.7436 71.1642 28.2902 70.1857 26.4195C69.236 24.5201 68.7611 22.3472 68.7611 19.901ZM87.5829 19.9873C87.5829 18.5196 87.2951 17.2677 86.7195 16.2316C86.1439 15.1668 85.3668 14.3609 84.3883 13.8141C83.4098 13.2385 82.3594 12.9508 81.237 12.9508C80.1146 12.9508 79.0785 13.2242 78.1288 13.771C77.1791 14.3178 76.402 15.1236 75.7977 16.1884C75.2221 17.2245 74.9343 18.462 74.9343 19.901C74.9343 21.34 75.2221 22.6063 75.7977 23.6999C76.402 24.7647 77.1791 25.5849 78.1288 26.1605C79.1073 26.7361 80.1434 27.0239 81.237 27.0239C82.3594 27.0239 83.4098 26.7505 84.3883 26.2037C85.3668 25.6281 86.1439 24.8223 86.7195 23.7862C87.2951 22.7214 87.5829 21.4551 87.5829 19.9873Z" fill="#89B9AD"/>
<path d="M121.84 8.02947V31.9452H115.753V28.9234C114.976 29.9594 113.954 30.7796 112.688 31.384C111.45 31.9596 110.098 32.2474 108.63 32.2474C106.759 32.2474 105.104 31.8589 103.665 31.0818C102.226 30.276 101.09 29.1104 100.255 27.5851C99.4492 26.031 99.0463 24.1891 99.0463 22.0595V8.02947H105.09V21.1961C105.09 23.0955 105.565 24.5633 106.515 25.5993C107.464 26.6066 108.759 27.1102 110.4 27.1102C112.069 27.1102 113.378 26.6066 114.328 25.5993C115.278 24.5633 115.753 23.0955 115.753 21.1961V8.02947H121.84Z" fill="#89B9AD"/>
<path d="M125.938 19.9873C125.938 17.5123 126.442 15.3538 127.449 13.512C128.457 11.6413 129.852 10.2023 131.637 9.19504C133.421 8.15898 135.464 7.64095 137.767 7.64095C140.731 7.64095 143.177 8.38921 145.105 9.88574C147.062 11.3535 148.372 13.4256 149.034 16.1021H142.515C142.17 15.066 141.58 14.2602 140.745 13.6846C139.94 13.0803 138.932 12.7781 137.724 12.7781C135.997 12.7781 134.63 13.4112 133.622 14.6775C132.615 15.915 132.112 17.685 132.112 19.9873C132.112 22.2609 132.615 24.0308 133.622 25.2971C134.63 26.5347 135.997 27.1534 137.724 27.1534C140.17 27.1534 141.767 26.0598 142.515 23.8726H149.034C148.372 26.4627 147.062 28.5204 145.105 30.0458C143.148 31.5711 140.702 32.3337 137.767 32.3337C135.464 32.3337 133.421 31.8301 131.637 30.8228C129.852 29.7867 128.457 28.3478 127.449 26.5059C126.442 24.6352 125.938 22.4624 125.938 19.9873Z" fill="#89B9AD"/>
<path d="M160.188 12.9939V24.5633C160.188 25.3691 160.375 25.9591 160.749 26.3332C161.152 26.6786 161.814 26.8512 162.735 26.8512H165.541V31.9452H161.742C156.648 31.9452 154.101 29.4702 154.101 24.5201V12.9939H151.252V8.02947H154.101V2.11529H160.188V8.02947H165.541V12.9939H160.188Z" fill="#89B9AD"/>
<path d="M135.972 49.4827L153.936 49.4827L167 49.4827" stroke="#89B9AD" stroke-width="3"/>
</svg>
