<svg width="29" height="29" viewBox="0 0 29 29" fill="none" xmlns="http://www.w3.org/2000/svg">
<rect width="29" height="29" rx="14.5" transform="matrix(1 0 0 -1 0 29)" fill="#89B9AD" fill-opacity="0.5"/>
<g clip-path="url(#clip0_26_324)">
<path d="M15.3114 21.171C15.0962 21.386 14.8044 21.5067 14.5002 21.5067C14.196 21.5067 13.9042 21.386 13.689 21.171L9.3583 16.8426C9.14295 16.6272 9.02197 16.3352 9.02197 16.0306C9.02197 15.7261 9.14295 15.434 9.3583 15.2187C9.57364 15.0033 9.86571 14.8823 10.1703 14.8823C10.4748 14.8823 10.7669 15.0033 10.9822 15.2187L13.3523 17.588V8.76049C13.3523 8.45605 13.4732 8.16407 13.6885 7.94879C13.9038 7.73352 14.1958 7.61258 14.5002 7.61258C14.8046 7.61258 15.0966 7.73352 15.3119 7.94879C15.5272 8.16407 15.6481 8.45605 15.6481 8.76049V17.588L18.0174 15.2187C18.124 15.112 18.2506 15.0275 18.3899 14.9698C18.5293 14.912 18.6786 14.8823 18.8294 14.8823C18.9802 14.8823 19.1295 14.912 19.2688 14.9698C19.4081 15.0275 19.5347 15.112 19.6413 15.2187C19.748 15.3253 19.8325 15.4519 19.8903 15.5912C19.948 15.7305 19.9777 15.8798 19.9777 16.0306C19.9777 16.1814 19.948 16.3307 19.8903 16.4701C19.8325 16.6094 19.748 16.736 19.6413 16.8426L15.3114 21.171Z" fill="white" fill-opacity="0.5"/>
</g>
<defs>
<clipPath id="clip0_26_324">
<rect width="18.3667" height="18.3667" fill="white" transform="matrix(1 0 0 -1 5.31689 23.6833)"/>
</clipPath>
</defs>
</svg>
