<svg width="63" height="63" viewBox="0 0 63 63" fill="none" xmlns="http://www.w3.org/2000/svg">
<circle cx="31.5" cy="31.5" r="31.5" fill="#89B9AD" fill-opacity="0.5"/>
<path d="M21.2838 39.1621H23.8378V44.3736L30.352 39.1621H36.6081C38.0167 39.1621 39.1622 38.0166 39.1622 36.608V26.3918C39.1622 24.9833 38.0167 23.8378 36.6081 23.8378H21.2838C19.8752 23.8378 18.7297 24.9833 18.7297 26.3918V36.608C18.7297 38.0166 19.8752 39.1621 21.2838 39.1621Z" fill="white"/>
<path d="M41.7162 18.7297H26.3919C24.9833 18.7297 23.8378 19.8752 23.8378 21.2838H39.1622C40.5707 21.2838 41.7162 22.4293 41.7162 23.8378V34.0541C43.1248 34.0541 44.2703 32.9086 44.2703 31.5V21.2838C44.2703 19.8752 43.1248 18.7297 41.7162 18.7297Z" fill="white"/>
</svg>
