<svg width="21" height="21" viewBox="0 0 21 21" fill="none" xmlns="http://www.w3.org/2000/svg">
<path d="M13.3022 12.0253H12.6297L12.3913 11.7955C13.2544 10.7944 13.7288 9.51639 13.7278 8.19464C13.7278 7.10027 13.4033 6.03048 12.7953 5.12054C12.1873 4.21061 11.3231 3.5014 10.3121 3.0826C9.30102 2.6638 8.18847 2.55423 7.11513 2.76773C6.04179 2.98123 5.05586 3.50822 4.28202 4.28205C3.50819 5.05589 2.9812 6.04182 2.7677 7.11516C2.5542 8.1885 2.66377 9.30105 3.08257 10.3121C3.50137 11.3232 4.21058 12.1874 5.12051 12.7953C6.03045 13.4033 7.10024 13.7279 8.19461 13.7279C9.56515 13.7279 10.825 13.2256 11.7955 12.3914L12.0253 12.6297V13.3022L16.2816 17.55L17.55 16.2817L13.3022 12.0253ZM8.19461 12.0253C6.07496 12.0253 4.36391 10.3143 4.36391 8.19464C4.36391 6.07499 6.07496 4.36394 8.19461 4.36394C10.3143 4.36394 12.0253 6.07499 12.0253 8.19464C12.0253 10.3143 10.3143 12.0253 8.19461 12.0253Z" fill="#89B9AD" fill-opacity="0.5"/>
</svg>
