<svg width="17" height="17" viewBox="0 0 17 17" fill="none" xmlns="http://www.w3.org/2000/svg">
<path d="M7.13996 7.69246C7.17538 7.45871 7.25329 7.25329 7.35246 7.07621C7.45163 6.89913 7.59329 6.75038 7.77038 6.63704C7.94038 6.53079 8.15288 6.48121 8.41496 6.47413C8.57788 6.48121 8.72663 6.50954 8.86121 6.56621C9.00288 6.62996 9.13038 6.71496 9.22954 6.82121C9.32871 6.92746 9.40663 7.05496 9.47038 7.19663C9.53413 7.33829 9.56246 7.49413 9.56954 7.64996H10.8375C10.8233 7.31704 10.7595 7.01246 10.6391 6.73621C10.5187 6.45996 10.3558 6.21913 10.1433 6.02079C9.93079 5.82246 9.67579 5.66663 9.37829 5.55329C9.08079 5.43996 8.75496 5.39038 8.39371 5.39038C7.93329 5.39038 7.52954 5.46829 7.18954 5.63121C6.84954 5.79413 6.56621 6.00663 6.33954 6.28288C6.11288 6.55913 5.94288 6.87788 5.83663 7.24621C5.73038 7.61454 5.66663 7.99704 5.66663 8.40788V8.59913C5.66663 9.00996 5.72329 9.39246 5.82954 9.76079C5.93579 10.1291 6.10579 10.4479 6.33246 10.717C6.55913 10.9862 6.84246 11.2058 7.18246 11.3616C7.52246 11.5175 7.92621 11.6025 8.38663 11.6025C8.71954 11.6025 9.03121 11.5458 9.32163 11.4395C9.61204 11.3333 9.86704 11.1845 10.0866 10.9933C10.3062 10.802 10.4833 10.5825 10.6108 10.3275C10.7383 10.0725 10.8162 9.80329 10.8233 9.51288H9.55538C9.54829 9.66163 9.51288 9.79621 9.44913 9.92371C9.38538 10.0512 9.30038 10.1575 9.19413 10.2495C9.08788 10.3416 8.96746 10.4125 8.82579 10.462C8.69121 10.5116 8.54954 10.5258 8.40079 10.5329C8.14579 10.5258 7.93329 10.4762 7.77038 10.37C7.59329 10.2566 7.45163 10.1079 7.35246 9.93079C7.25329 9.75371 7.17538 9.54121 7.13996 9.30746C7.10454 9.07371 7.08329 8.83288 7.08329 8.59913V8.40788C7.08329 8.15996 7.10454 7.92621 7.13996 7.69246ZM8.49996 1.41663C4.58996 1.41663 1.41663 4.58996 1.41663 8.49996C1.41663 12.41 4.58996 15.5833 8.49996 15.5833C12.41 15.5833 15.5833 12.41 15.5833 8.49996C15.5833 4.58996 12.41 1.41663 8.49996 1.41663ZM8.49996 14.1666C5.37621 14.1666 2.83329 11.6237 2.83329 8.49996C2.83329 5.37621 5.37621 2.83329 8.49996 2.83329C11.6237 2.83329 14.1666 5.37621 14.1666 8.49996C14.1666 11.6237 11.6237 14.1666 8.49996 14.1666Z" fill="#4D4D4D"/>
</svg>
