<svg width="26" height="26" viewBox="0 0 26 26" fill="none" xmlns="http://www.w3.org/2000/svg">
<circle cx="12.7621" cy="12.7621" r="12.7621" fill="#89B9AD"/>
<g clip-path="url(#clip0_35_644)">
<path d="M16.8789 15.5924C17.0772 15.5925 17.2678 15.6688 17.4112 15.8056C17.5547 15.9424 17.64 16.1292 17.6496 16.3272C17.6591 16.5252 17.5921 16.7192 17.4624 16.8692C17.3327 17.0191 17.1503 17.1134 16.953 17.1326L16.8789 17.1362H8.64531C8.44708 17.1361 8.25648 17.0597 8.11302 16.9229C7.96955 16.7861 7.88421 16.5994 7.87469 16.4014C7.86516 16.2033 7.93218 16.0093 8.06185 15.8593C8.19152 15.7094 8.3739 15.6151 8.57121 15.596L8.64531 15.5924H16.8789ZM16.8789 11.9901C17.0837 11.9901 17.28 12.0715 17.4248 12.2162C17.5695 12.361 17.6508 12.5573 17.6508 12.762C17.6508 12.9668 17.5695 13.1631 17.4248 13.3079C17.28 13.4526 17.0837 13.534 16.8789 13.534H8.64531C8.44059 13.534 8.24426 13.4526 8.0995 13.3079C7.95474 13.1631 7.87341 12.9668 7.87341 12.762C7.87341 12.5573 7.95474 12.361 8.0995 12.2162C8.24426 12.0715 8.44059 11.9901 8.64531 11.9901H16.8789ZM16.8789 8.38794C17.0837 8.38794 17.28 8.46926 17.4248 8.61402C17.5695 8.75878 17.6508 8.95512 17.6508 9.15984C17.6508 9.36456 17.5695 9.5609 17.4248 9.70566C17.28 9.85042 17.0837 9.93174 16.8789 9.93174H8.64531C8.44059 9.93174 8.24426 9.85042 8.0995 9.70566C7.95474 9.5609 7.87341 9.36456 7.87341 9.15984C7.87341 8.95512 7.95474 8.75878 8.0995 8.61402C8.24426 8.46926 8.44059 8.38794 8.64531 8.38794H16.8789Z" fill="white"/>
</g>
<defs>
<clipPath id="clip0_35_644">
<rect width="12.3504" height="12.3504" fill="white" transform="translate(6.58691 6.58679)"/>
</clipPath>
</defs>
</svg>
