<svg width="18" height="18" viewBox="0 0 18 18" fill="none" xmlns="http://www.w3.org/2000/svg">
<g clip-path="url(#clip0_45_22)">
<path d="M14.9979 13.2244C15.2712 13.2245 15.5339 13.3298 15.7317 13.5184C15.9295 13.707 16.0471 13.9644 16.0602 14.2373C16.0734 14.5103 15.981 14.7778 15.8022 14.9845C15.6235 15.1912 15.3721 15.3212 15.1001 15.3476L14.9979 15.3526H3.6477C3.37443 15.3524 3.11169 15.2472 2.91392 15.0586C2.71615 14.87 2.59851 14.6126 2.58537 14.3396C2.57224 14.0667 2.66462 13.7991 2.84338 13.5924C3.02213 13.3857 3.27356 13.2557 3.54555 13.2294L3.6477 13.2244H14.9979ZM14.9979 8.25869C15.2801 8.25869 15.5508 8.37079 15.7503 8.57035C15.9499 8.7699 16.062 9.04056 16.062 9.32277C16.062 9.60498 15.9499 9.87563 15.7503 10.0752C15.5508 10.2747 15.2801 10.3869 14.9979 10.3869H3.6477C3.36549 10.3869 3.09483 10.2747 2.89528 10.0752C2.69573 9.87563 2.58362 9.60498 2.58362 9.32277C2.58362 9.04056 2.69573 8.7699 2.89528 8.57035C3.09483 8.37079 3.36549 8.25869 3.6477 8.25869H14.9979ZM14.9979 3.29297C15.2801 3.29297 15.5508 3.40508 15.7503 3.60463C15.9499 3.80419 16.062 4.07484 16.062 4.35705C16.062 4.63926 15.9499 4.90992 15.7503 5.10947C15.5508 5.30903 15.2801 5.42113 14.9979 5.42113H3.6477C3.36549 5.42113 3.09483 5.30903 2.89528 5.10947C2.69573 4.90992 2.58362 4.63926 2.58362 4.35705C2.58362 4.07484 2.69573 3.80419 2.89528 3.60463C3.09483 3.40508 3.36549 3.29297 3.6477 3.29297H14.9979Z" fill="#89B9AD" fill-opacity="0.5"/>
</g>
<defs>
<clipPath id="clip0_45_22">
<rect width="17.0253" height="17.0253" fill="white" transform="translate(0.810181 0.81012)"/>
</clipPath>
</defs>
</svg>
