<svg width="60" height="22" viewBox="0 0 60 22" fill="none" xmlns="http://www.w3.org/2000/svg">
<path d="M0.0358055 8.72979L1.42029 8.71784L1.53964 0.715016L0 0.691109V0.469971L3.19266 0.505831L6.01533 6.01039L7.9906 0.529738L11.4757 0.565598V0.786737L10.2404 0.774783C10.2364 0.810644 10.2304 0.886349 10.2225 1.0019C10.2185 1.11346 10.2105 1.28878 10.1986 1.52785C10.1907 1.76692 10.1807 2.0797 10.1688 2.46619C10.1568 2.85269 10.1429 3.3368 10.127 3.91854C10.1111 4.49629 10.0952 5.18361 10.0793 5.9805C10.0633 6.7774 10.0474 7.70578 10.0315 8.76565H11.4995V8.98679H6.39129V8.76565H7.79964L7.94286 1.28878L5.10826 9.1123L1.72463 2.59768L1.63512 8.71784L2.95993 8.70589V8.92703L0.0358055 8.95093V8.72979Z" fill="#89B9AD"/>
<path d="M17.682 4.22335L17.5328 8.78956L18.1534 8.72979L18.1773 8.95093L15.8559 9.16012L15.8678 8.17994C15.8002 8.32736 15.7306 8.45686 15.659 8.56842C15.5873 8.67999 15.5137 8.77761 15.4382 8.86128C15.3665 8.94097 15.2949 9.00871 15.2233 9.06449C15.1517 9.12426 15.0841 9.17207 15.0204 9.20793C14.8692 9.29559 14.7201 9.3454 14.5729 9.35735C14.2267 9.35735 13.9244 9.28762 13.6658 9.14816C13.4072 9.01269 13.1924 8.8314 13.0213 8.60428C12.8502 8.37717 12.7209 8.12017 12.6334 7.83329C12.5498 7.54242 12.5081 7.24558 12.5081 6.94276L12.6334 4.39667L11.9232 4.38472V4.16358L14.5251 4.19944C14.4376 4.9286 14.37 5.5442 14.3222 6.04625C14.2785 6.54431 14.2466 6.94873 14.2267 7.25952C14.2029 7.62609 14.1889 7.92095 14.185 8.14408C14.185 8.35127 14.2009 8.51862 14.2327 8.64612C14.2645 8.77362 14.3063 8.87324 14.358 8.94496C14.4097 9.01668 14.4654 9.06449 14.5251 9.0884C14.5848 9.11629 14.6425 9.13223 14.6982 9.13621C14.7817 9.11629 14.8732 9.07644 14.9727 9.01668C15.0761 8.95691 15.1796 8.86527 15.283 8.74175C15.3904 8.61424 15.4939 8.44889 15.5933 8.24568C15.6928 8.04247 15.7843 7.79145 15.8678 7.49261L15.9096 4.43253L15.0264 4.42058V4.19944L17.682 4.22335Z" fill="#89B9AD"/>
<path d="M18.6129 3.70935L21.6086 3.63763L21.5728 5.26928C21.6445 5.08997 21.726 4.91864 21.8175 4.75528C21.913 4.58793 22.0204 4.43851 22.1398 4.30702C22.2591 4.17554 22.3924 4.06795 22.5396 3.98428C22.6868 3.89662 22.8499 3.84283 23.0289 3.82291C23.2557 3.82291 23.4685 3.86475 23.6675 3.94842C23.8664 4.02811 24.0474 4.13968 24.2105 4.28312C24.3776 4.42257 24.5248 4.58793 24.6521 4.77918C24.7794 4.97044 24.8868 5.17365 24.9744 5.38881C25.0619 5.60397 25.1255 5.82511 25.1653 6.05223C25.2051 6.27536 25.221 6.4945 25.2131 6.70966C25.2091 6.9328 25.2031 7.1619 25.1952 7.39699C25.1872 7.60019 25.1773 7.82532 25.1653 8.07236C25.1574 8.31541 25.1454 8.55448 25.1295 8.78956L25.971 8.80152V9.02265L22.6589 8.95093V8.72979L23.3094 8.74175C23.4049 7.67789 23.4288 6.60009 23.381 5.50834C23.393 5.01028 23.3651 4.6477 23.2975 4.42058C23.2338 4.19347 23.0986 4.07592 22.8917 4.06795C22.824 4.08788 22.7345 4.12573 22.6231 4.18151C22.5117 4.2373 22.3924 4.33491 22.2651 4.47437C22.1418 4.60984 22.0164 4.79711 21.8891 5.03618C21.7658 5.27127 21.6564 5.57608 21.5609 5.95062L21.5012 8.72979H22.1219V8.95093H19.0187V8.72979H19.5558L19.6751 3.90658L18.6129 3.93049V3.70935Z" fill="#89B9AD"/>
<path d="M31.2165 5.59799C31.2165 5.71354 31.1986 5.8271 31.1628 5.93867C31.127 6.04625 31.0752 6.14387 31.0076 6.23153C30.94 6.3152 30.8544 6.38294 30.751 6.43474C30.6515 6.48653 30.5342 6.51243 30.3989 6.51243C30.3233 6.51243 30.2418 6.49849 30.1542 6.4706C30.0667 6.43872 29.9852 6.3929 29.9096 6.33313C29.838 6.27336 29.7763 6.19965 29.7246 6.11199C29.6768 6.02035 29.653 5.91476 29.653 5.79523C29.653 5.72749 29.6609 5.65776 29.6768 5.58604C29.6927 5.51034 29.7087 5.43463 29.7246 5.35893C29.7445 5.28322 29.7624 5.2115 29.7783 5.14376C29.7942 5.07603 29.8022 5.01427 29.8022 4.95849C29.8022 4.67559 29.7345 4.45445 29.5993 4.29507C29.464 4.13569 29.2949 4.056 29.092 4.056C28.9647 4.056 28.8473 4.12573 28.7399 4.26519C28.6325 4.40066 28.539 4.58793 28.4594 4.827C28.3839 5.06607 28.3242 5.34498 28.2804 5.66374C28.2406 5.97851 28.2207 6.3152 28.2207 6.6738C28.2207 7.50258 28.3182 8.12017 28.5132 8.52659C28.7081 8.933 28.9627 9.13621 29.277 9.13621C29.468 9.13621 29.645 9.09238 29.8081 9.00472C29.9752 8.92105 30.1284 8.80948 30.2676 8.67003C30.4069 8.53057 30.5282 8.37518 30.6316 8.20384C30.7391 8.02853 30.8286 7.85321 30.9002 7.67789L31.121 7.74961C31.0335 8.02056 30.9221 8.24967 30.7868 8.43694C30.6515 8.62022 30.5063 8.77362 30.3512 8.89714C30.196 9.02066 30.0389 9.11629 29.8797 9.18402C29.7246 9.25176 29.5794 9.30157 29.4441 9.33344C29.3128 9.3693 29.2014 9.38923 29.1099 9.39321C29.0184 9.40118 28.9627 9.40516 28.9428 9.40516C28.5529 9.40516 28.2008 9.32348 27.8866 9.16012C27.5762 9.00074 27.3117 8.79753 27.0929 8.55049C26.878 8.30346 26.7129 8.03052 26.5976 7.73168C26.4822 7.43285 26.4245 7.14596 26.4245 6.87104C26.4245 6.68775 26.4484 6.48653 26.4961 6.26739C26.5438 6.04426 26.6155 5.82113 26.7109 5.59799C26.8104 5.37088 26.9337 5.15173 27.0809 4.94056C27.2281 4.72938 27.3992 4.54211 27.5941 4.37874C27.7891 4.21538 28.0079 4.08389 28.2506 3.98428C28.4933 3.88467 28.7618 3.83486 29.0562 3.83486C29.4143 3.83486 29.7286 3.88865 29.9991 3.99623C30.2696 4.10382 30.4944 4.24327 30.6734 4.4146C30.8564 4.58594 30.9917 4.7752 31.0792 4.98239C31.1707 5.18959 31.2165 5.39479 31.2165 5.59799Z" fill="#89B9AD"/>
<path d="M31.5387 0.601458L34.5345 0.517784L34.4688 5.31709C34.5285 5.16169 34.6041 5.00032 34.6956 4.83297C34.7871 4.66563 34.8925 4.51023 35.0119 4.36679C35.1352 4.22335 35.2744 4.10182 35.4296 4.00221C35.5847 3.9026 35.7578 3.84283 35.9488 3.82291C36.1755 3.82291 36.3884 3.86475 36.5873 3.94842C36.7862 4.02811 36.9672 4.13968 37.1304 4.28312C37.2974 4.42257 37.4446 4.58793 37.572 4.77918C37.7032 4.97044 37.8126 5.17365 37.9002 5.38881C37.9877 5.60397 38.0514 5.82511 38.0911 6.05223C38.1309 6.27536 38.1468 6.4945 38.1389 6.70966C38.1349 6.9328 38.1289 7.1619 38.121 7.39699C38.113 7.60019 38.1031 7.82532 38.0911 8.07236C38.0832 8.31541 38.0712 8.55448 38.0553 8.78956L38.8968 8.80152V9.02265L35.5847 8.95093V8.72979L36.2292 8.74175C36.281 8.20783 36.3128 7.67391 36.3247 7.13999C36.3367 6.60208 36.3307 6.0582 36.3068 5.50834C36.3108 5.25732 36.3068 5.04216 36.2949 4.86286C36.2869 4.68356 36.2631 4.53613 36.2233 4.42058C36.1875 4.30105 36.1358 4.21339 36.0681 4.15761C36.0045 4.10182 35.9209 4.07194 35.8175 4.06795C35.7499 4.08788 35.6583 4.12772 35.543 4.18749C35.4316 4.24726 35.3122 4.35085 35.1849 4.49828C35.0576 4.6457 34.9283 4.84493 34.797 5.09595C34.6697 5.34697 34.5563 5.66972 34.4569 6.06418L34.4211 8.72979H35.0477V8.95093H31.9445V8.72979H32.4816L32.601 0.79869L31.5387 0.822597V0.601458Z" fill="#89B9AD"/>
<path d="M39.3264 4.30105L41.982 4.22335L41.8925 8.7537H42.895V8.97484H39.1832V8.7537H40.1738L40.2096 4.4923L39.3264 4.52219V4.30105ZM42.1133 2.70526C42.1014 2.86066 42.0596 3.00808 41.988 3.14754C41.9203 3.28301 41.8308 3.40255 41.7194 3.50614C41.608 3.60576 41.4807 3.68345 41.3375 3.73924C41.1943 3.79502 41.0451 3.81892 40.8899 3.81096C40.7268 3.80697 40.5776 3.77111 40.4424 3.70338C40.3071 3.63564 40.1917 3.54798 40.0962 3.4404C40.0008 3.32883 39.9292 3.20133 39.8814 3.05789C39.8337 2.91445 39.8158 2.76105 39.8277 2.59768C39.8357 2.44229 39.8754 2.29685 39.9471 2.16138C40.0187 2.02591 40.1082 1.91036 40.2156 1.81473C40.327 1.71512 40.4543 1.63942 40.5975 1.58762C40.7407 1.53183 40.8879 1.50594 41.0391 1.50992C41.1983 1.5139 41.3455 1.54976 41.4807 1.6175C41.616 1.68125 41.7314 1.76692 41.8268 1.8745C41.9263 1.98208 41.9999 2.10759 42.0476 2.25103C42.0994 2.39447 42.1213 2.54588 42.1133 2.70526Z" fill="#89B9AD"/>
<path d="M48.2539 5.96257C48.2539 6.17375 48.1863 6.36501 48.051 6.53634C47.9158 6.70369 47.7407 6.84713 47.5259 6.96666C47.315 7.0862 47.0783 7.18182 46.8158 7.25355C46.5572 7.32128 46.3025 7.35714 46.0519 7.36113C46.036 7.36113 46.0002 7.35913 45.9445 7.35515C45.8888 7.35117 45.8212 7.33921 45.7416 7.31929C45.662 7.29538 45.5725 7.25952 45.473 7.21171C45.3736 7.16389 45.2741 7.09417 45.1747 7.00252C45.1866 7.35714 45.2184 7.66195 45.2701 7.91696C45.3258 8.16798 45.3975 8.37518 45.485 8.53854C45.5765 8.69792 45.6819 8.81546 45.8013 8.89117C45.9246 8.96289 46.0579 8.99875 46.2011 8.99875C46.2846 8.99875 46.396 8.97086 46.5353 8.91507C46.6785 8.85929 46.8257 8.77362 46.9769 8.65807C47.132 8.54252 47.2832 8.3951 47.4304 8.2158C47.5776 8.0365 47.7009 7.82133 47.8004 7.57031L47.9735 7.12803L48.1883 7.19975L48.0928 7.46871C48.0053 7.70379 47.8899 7.92692 47.7467 8.1381C47.6035 8.34928 47.4364 8.53854 47.2454 8.70589C47.0584 8.86925 46.8496 9.00074 46.6188 9.10035C46.3881 9.20395 46.1414 9.26371 45.8788 9.27965C45.4213 9.26371 45.0334 9.18203 44.7152 9.03461C44.3969 8.88718 44.1383 8.69991 43.9394 8.4728C43.7405 8.24568 43.5952 7.99267 43.5037 7.71375C43.4162 7.43484 43.3725 7.15393 43.3725 6.87104C43.3725 6.68376 43.4003 6.48056 43.456 6.26141C43.5157 6.03828 43.6012 5.81515 43.7126 5.59202C43.824 5.3649 43.9593 5.14576 44.1184 4.93458C44.2815 4.7234 44.4645 4.53613 44.6674 4.37277C44.8743 4.2094 45.0991 4.07991 45.3418 3.98428C45.5884 3.88467 45.853 3.83486 46.1354 3.83486C46.394 3.84283 46.6248 3.88268 46.8277 3.9544C47.0346 4.02213 47.2156 4.11378 47.3707 4.22933C47.5299 4.34089 47.6651 4.46839 47.7765 4.61184C47.8879 4.75528 47.9794 4.9047 48.051 5.06009C48.1227 5.2115 48.1744 5.36689 48.2062 5.52627C48.238 5.68167 48.2539 5.8271 48.2539 5.96257ZM46.04 4.056C45.9127 4.06397 45.7933 4.13569 45.6819 4.27116C45.5745 4.40664 45.481 4.59191 45.4014 4.827C45.3258 5.0581 45.2662 5.33103 45.2224 5.64581C45.1786 5.96058 45.1568 6.29926 45.1568 6.66185C45.2562 6.7774 45.3557 6.86705 45.4551 6.9308C45.5546 6.99455 45.6461 7.04237 45.7297 7.07424C45.8132 7.10214 45.8828 7.12007 45.9385 7.12803C45.9942 7.136 46.028 7.13999 46.04 7.13999C46.1951 7.136 46.3224 7.10214 46.4219 7.03838C46.5253 6.97463 46.6049 6.88697 46.6606 6.77541C46.7203 6.66384 46.762 6.53036 46.7859 6.37497C46.8098 6.21957 46.8217 6.04625 46.8217 5.85499C46.8217 5.61592 46.8058 5.38881 46.774 5.17365C46.7461 4.9545 46.7004 4.76325 46.6367 4.59988C46.577 4.43253 46.4975 4.30105 46.398 4.20542C46.2986 4.10581 46.1792 4.056 46.04 4.056Z" fill="#89B9AD"/>
<path d="M51.1124 9.18402C50.8697 9.18402 50.635 9.15215 50.4082 9.0884C50.1815 9.02863 49.9746 8.94296 49.7876 8.8314C49.6046 8.71585 49.4475 8.58038 49.3162 8.42498C49.1889 8.2656 49.1033 8.09029 49.0596 7.89903C49.0596 7.78747 49.0755 7.68387 49.1073 7.58824C49.1431 7.49261 49.1909 7.40894 49.2505 7.33722C49.3142 7.2655 49.3878 7.20972 49.4713 7.16987C49.5549 7.12604 49.6444 7.10413 49.7399 7.10413C49.8552 7.10413 49.9686 7.138 50.08 7.20573C50.1914 7.27347 50.2869 7.37706 50.3665 7.51652C50.4301 7.63207 50.4759 7.74762 50.5037 7.86317C50.5356 7.97872 50.5594 8.09029 50.5753 8.19787C50.5952 8.30545 50.6111 8.40705 50.6231 8.50268C50.639 8.59432 50.6629 8.67401 50.6947 8.74175C50.7305 8.80948 50.7802 8.86327 50.8439 8.90312C50.9075 8.94296 50.997 8.96289 51.1124 8.96289C51.2994 8.96289 51.4605 8.94496 51.5958 8.9091C51.7311 8.87324 51.8425 8.82343 51.93 8.75968C52.0175 8.69593 52.0812 8.62421 52.1209 8.54452C52.1647 8.46483 52.1866 8.37916 52.1866 8.28752C52.1866 8.18392 52.1587 8.07833 52.103 7.97075C52.0473 7.86317 51.9658 7.76356 51.8584 7.67192C51.751 7.57629 51.6157 7.49062 51.4526 7.41492C51.2934 7.33921 51.1065 7.28343 50.8916 7.24757C50.6489 7.20772 50.4242 7.14796 50.2173 7.06827C50.0144 6.98858 49.8373 6.88299 49.6862 6.7515C49.535 6.61603 49.4156 6.45267 49.3281 6.26141C49.2446 6.06617 49.2028 5.83308 49.2028 5.56213C49.2028 5.29119 49.2625 5.05212 49.3818 4.84493C49.5051 4.63375 49.6623 4.45644 49.8533 4.313C50.0442 4.16956 50.2591 4.05999 50.4978 3.98428C50.7365 3.90858 50.9732 3.87072 51.2079 3.87072C51.3074 3.87072 51.4227 3.87869 51.554 3.89463C51.6853 3.90658 51.8186 3.93049 51.9538 3.96635C52.0931 4.00221 52.2304 4.05002 52.3656 4.10979C52.5009 4.16956 52.6202 4.24526 52.7237 4.33691C52.8311 4.42855 52.9166 4.53812 52.9803 4.66563C53.0439 4.79313 53.0758 4.94056 53.0758 5.1079C53.0758 5.20353 53.0579 5.29318 53.022 5.37686C52.9902 5.46053 52.9445 5.53424 52.8848 5.59799C52.8291 5.65776 52.7615 5.70558 52.6819 5.74144C52.6063 5.7773 52.5267 5.79523 52.4432 5.79523C52.2522 5.79523 52.107 5.75339 52.0076 5.66972C51.9121 5.58604 51.8425 5.48045 51.7987 5.35295C51.7549 5.22545 51.7251 5.08997 51.7092 4.94653C51.6972 4.79911 51.6774 4.66164 51.6495 4.53414C51.6217 4.40664 51.5759 4.30105 51.5122 4.21737C51.4526 4.1337 51.3511 4.09186 51.2079 4.09186C50.9374 4.11178 50.7245 4.17753 50.5694 4.28909C50.4182 4.39667 50.3426 4.54211 50.3426 4.72539C50.3426 4.84493 50.3685 4.96247 50.4202 5.07802C50.4719 5.18959 50.5455 5.29318 50.641 5.38881C50.7404 5.48444 50.8598 5.56811 50.999 5.63983C51.1383 5.70757 51.2934 5.75538 51.4645 5.78327C51.6992 5.82312 51.924 5.88687 52.1388 5.97453C52.3537 6.06219 52.5427 6.17375 52.7058 6.30922C52.8729 6.4447 53.0041 6.60408 53.0996 6.78736C53.1991 6.96666 53.2488 7.16589 53.2488 7.38503C53.2488 7.60418 53.1911 7.82133 53.0758 8.0365C52.9644 8.25166 52.8112 8.4449 52.6163 8.61624C52.4213 8.78359 52.1945 8.91906 51.9359 9.02265C51.6774 9.13023 51.4028 9.18402 51.1124 9.18402Z" fill="#89B9AD"/>
<path d="M0.0238704 10.9579L7.26256 10.946L7.19692 15.2074H6.97611C6.98407 14.7053 6.95423 14.263 6.8866 13.8805C6.82295 13.494 6.73542 13.1593 6.62403 12.8764C6.51661 12.5935 6.39129 12.3565 6.24807 12.1652C6.10485 11.97 5.95765 11.8086 5.80647 11.6811C5.65529 11.5536 5.5061 11.456 5.3589 11.3882C5.21567 11.3205 5.08638 11.2707 4.971 11.2388C4.85961 11.2069 4.76811 11.187 4.69649 11.1791C4.62886 11.1711 4.59505 11.1671 4.59505 11.1671C4.47967 11.1671 4.36032 11.1691 4.23699 11.1731C4.11764 11.1771 4.00028 11.1791 3.8849 11.1791C3.88092 11.2269 3.87496 11.3285 3.867 11.4839C3.86302 11.6393 3.85506 11.8724 3.84313 12.1831C3.83119 12.4899 3.81727 12.8884 3.80136 13.3785C3.78544 13.8646 3.76953 14.4623 3.75361 15.1715C3.78942 15.1675 3.85705 15.1615 3.95651 15.1536C4.05995 15.1456 4.17532 15.1237 4.30263 15.0878C4.43392 15.048 4.56919 14.9882 4.70843 14.9085C4.84767 14.8249 4.97498 14.7093 5.09036 14.5619C5.20573 14.4105 5.29922 14.2192 5.37083 13.9881C5.44642 13.757 5.48223 13.4741 5.47825 13.1394H5.69308L5.63341 17.6997H5.41261C5.40067 17.3092 5.35094 16.9526 5.26342 16.6298C5.22761 16.4943 5.17987 16.3589 5.12019 16.2234C5.06052 16.0879 4.98891 15.9644 4.90536 15.8528C4.82181 15.7373 4.72235 15.6397 4.60698 15.56C4.49161 15.4803 4.35833 15.4265 4.20715 15.3986L3.75361 15.3867L3.682 19.158H5.23358C5.3211 19.15 5.44045 19.1281 5.59163 19.0922C5.74281 19.0564 5.90394 18.9966 6.07501 18.9129C6.25006 18.8293 6.4271 18.7157 6.60612 18.5723C6.78515 18.4288 6.94827 18.2435 7.09547 18.0164C7.24664 17.7853 7.36998 17.5084 7.46546 17.1857C7.56492 16.8589 7.6226 16.4724 7.63852 16.0262H7.85932L7.76384 19.3791H0.0358055V19.158H1.44416L1.47996 11.1791H0.0238704V10.9579Z" fill="#89B9AD"/>
<path d="M19.2992 19.4867L16.1065 19.415V19.1938L16.5839 19.2058C16.6118 18.377 16.6317 17.6897 16.6436 17.1438C16.6595 16.594 16.6715 16.1597 16.6794 15.8409C16.6874 15.4664 16.6914 15.1775 16.6914 14.9743C16.6953 14.8468 16.6834 14.7452 16.6555 14.6695C16.6317 14.5938 16.5959 14.538 16.5481 14.5021C16.5044 14.4623 16.4527 14.4364 16.393 14.4244C16.3373 14.4125 16.2816 14.4045 16.2259 14.4005C16.1503 14.4244 16.0508 14.4742 15.9275 14.5499C15.8081 14.6216 15.6848 14.7412 15.5575 14.9085C15.4342 15.0759 15.3168 15.299 15.2054 15.5779C15.098 15.8568 15.0145 16.2134 14.9548 16.6478C14.9588 16.6756 14.9608 16.7075 14.9608 16.7434C14.9647 16.7792 14.9667 16.831 14.9667 16.8988C14.9707 16.9625 14.9727 17.0502 14.9727 17.1617C14.9767 17.2693 14.9787 17.4128 14.9787 17.5921C14.9826 17.7714 14.9846 17.9925 14.9846 18.2555C14.9846 18.5185 14.9846 18.8352 14.9846 19.2058L15.6053 19.2177V19.4389L12.6334 19.3672V19.146L13.1585 19.158C13.1745 18.4487 13.1904 17.855 13.2063 17.3769C13.2222 16.8948 13.2361 16.5103 13.2481 16.2234C13.264 15.8887 13.2759 15.6237 13.2839 15.4285C13.2759 15.1496 13.2461 14.9265 13.1943 14.7591C13.1466 14.5918 13.0869 14.4921 13.0153 14.4603C12.9596 14.4682 12.8721 14.4961 12.7527 14.5439C12.6334 14.5878 12.5041 14.6714 12.3648 14.795C12.2256 14.9145 12.0864 15.0838 11.9471 15.303C11.8119 15.5182 11.6985 15.7991 11.607 16.1457L11.5354 19.146H12.1739V19.3672H8.71268V19.146H9.67943V14.4483H8.49188V14.2272H11.6607L11.6308 15.4405C11.7303 15.2253 11.8377 15.046 11.9531 14.9025C12.0724 14.7591 12.1938 14.6416 12.3171 14.5499C12.4444 14.4583 12.5697 14.3886 12.6931 14.3407C12.8164 14.2929 12.9318 14.2551 13.0392 14.2272H13.0631C13.3336 14.2112 13.5683 14.2551 13.7672 14.3587C13.9701 14.4623 14.1412 14.6017 14.2804 14.777C14.4237 14.9484 14.541 15.1456 14.6325 15.3687C14.724 15.5879 14.7956 15.807 14.8474 16.0262C14.9031 15.7991 14.9667 15.5978 15.0383 15.4225C15.1139 15.2472 15.1935 15.0938 15.277 14.9623C15.3606 14.8308 15.4441 14.7193 15.5277 14.6276C15.6152 14.536 15.7007 14.4603 15.7843 14.4005C15.9752 14.2571 16.1762 14.1714 16.387 14.1435C16.6416 14.1276 16.8704 14.1594 17.0733 14.2391C17.2762 14.3148 17.4552 14.4204 17.6104 14.5559C17.7655 14.6914 17.8988 14.8488 18.0102 15.0281C18.1256 15.2074 18.2191 15.3926 18.2907 15.5839C18.3623 15.7751 18.416 15.9644 18.4518 16.1517C18.4876 16.335 18.5075 16.5003 18.5115 16.6478C18.5115 17.0821 18.5135 17.5144 18.5174 17.9447C18.5214 18.371 18.5194 18.8093 18.5115 19.2596L19.2992 19.2715V19.4867Z" fill="#89B9AD"/>
<path d="M19.2514 21.6562L20.3137 21.6443L20.4509 14.2391L19.4245 14.2152V13.9941L22.2591 14.0419L22.2114 15.2432C22.2711 15.1715 22.3367 15.0978 22.4083 15.0221C22.4839 14.9424 22.5655 14.8707 22.653 14.8069C22.7405 14.7432 22.834 14.6914 22.9335 14.6515C23.0329 14.6117 23.1383 14.5918 23.2497 14.5918C23.3969 14.5918 23.5581 14.6157 23.7331 14.6635C23.9121 14.7113 24.0912 14.783 24.2702 14.8786C24.4492 14.9703 24.6223 15.0858 24.7894 15.2253C24.9604 15.3608 25.1096 15.5182 25.2369 15.6975C25.3682 15.8768 25.4717 16.078 25.5473 16.3011C25.6268 16.5202 25.6666 16.7593 25.6666 17.0183C25.6666 17.2773 25.6189 17.5223 25.5234 17.7534C25.4319 17.9806 25.3086 18.1917 25.1534 18.387C25.0022 18.5782 24.8272 18.7516 24.6283 18.9069C24.4333 19.0584 24.2284 19.1879 24.0136 19.2954C23.8027 19.403 23.5919 19.4847 23.381 19.5405C23.1741 19.5963 22.9832 19.6242 22.8081 19.6242C22.7843 19.6202 22.7445 19.6122 22.6888 19.6002C22.6371 19.5923 22.5754 19.5763 22.5038 19.5524C22.4362 19.5285 22.3626 19.4947 22.283 19.4508C22.2074 19.411 22.1338 19.3592 22.0622 19.2954L21.9667 21.6323H23.1005V21.8535L19.2514 21.8774V21.6562ZM22.8559 19.403C22.9951 19.403 23.1165 19.3632 23.2199 19.2835C23.3273 19.2038 23.4188 19.1002 23.4944 18.9727C23.574 18.8412 23.6396 18.6938 23.6913 18.5304C23.7431 18.3631 23.7848 18.1937 23.8167 18.0224C23.8485 17.8471 23.8704 17.6777 23.8823 17.5144C23.8942 17.347 23.9002 17.1976 23.9002 17.0661C23.9002 16.9386 23.8982 16.7952 23.8942 16.6358C23.8903 16.4724 23.8783 16.3091 23.8584 16.1457C23.8425 15.9784 23.8186 15.815 23.7868 15.6556C23.759 15.4962 23.7172 15.3568 23.6615 15.2372C23.6098 15.1137 23.5441 15.0141 23.4646 14.9384C23.385 14.8627 23.2895 14.8249 23.1781 14.8249C23.0747 14.8249 22.9752 14.8527 22.8797 14.9085C22.7843 14.9643 22.6947 15.036 22.6112 15.1237C22.5316 15.2074 22.456 15.303 22.3844 15.4106C22.3168 15.5182 22.2551 15.6217 22.1994 15.7214L22.0741 18.9368C22.1338 19.0364 22.2014 19.1161 22.277 19.1759C22.3526 19.2357 22.4242 19.2815 22.4919 19.3134C22.5635 19.3452 22.6271 19.3672 22.6828 19.3791C22.7425 19.3911 22.7882 19.399 22.8201 19.403H22.8559Z" fill="#89B9AD"/>
<path d="M32.0877 17.1737C32.0877 17.4486 32.04 17.7056 31.9445 17.9447C31.853 18.1798 31.7277 18.3969 31.5686 18.5962C31.4134 18.7914 31.2344 18.9667 31.0315 19.1221C30.8326 19.2735 30.6237 19.401 30.4049 19.5046C30.19 19.6122 29.9752 19.6939 29.7604 19.7497C29.5455 19.8055 29.3466 19.8333 29.1636 19.8333H29.1039C28.9209 19.8294 28.726 19.7995 28.5191 19.7437C28.3162 19.6879 28.1133 19.6062 27.9104 19.4986C27.7115 19.395 27.5205 19.2656 27.3375 19.1102C27.1585 18.9548 26.9994 18.7735 26.8601 18.5663C26.7209 18.3551 26.6095 18.12 26.5259 17.861C26.4424 17.598 26.4006 17.3092 26.4006 16.9944C26.4006 16.6717 26.4504 16.3768 26.5498 16.1098C26.6493 15.8389 26.7786 15.5978 26.9377 15.3867C27.1008 15.1755 27.2838 14.9922 27.4867 14.8368C27.6936 14.6814 27.9005 14.5519 28.1074 14.4483C28.3182 14.3447 28.5191 14.269 28.7101 14.2212C28.905 14.1694 29.0741 14.1435 29.2173 14.1435H29.2651C29.5077 14.1515 29.7465 14.1953 29.9812 14.275C30.2159 14.3507 30.4367 14.4563 30.6436 14.5918C30.8544 14.7272 31.0474 14.8886 31.2224 15.0759C31.4015 15.2592 31.5546 15.4624 31.6819 15.6855C31.8093 15.9086 31.9087 16.1457 31.9803 16.3967C32.0519 16.6478 32.0877 16.9067 32.0877 17.1737ZM30.1781 17.0781C30.1781 16.9785 30.1781 16.841 30.1781 16.6657C30.1781 16.4904 30.1702 16.3031 30.1542 16.1039C30.1423 15.9007 30.1184 15.6955 30.0826 15.4883C30.0468 15.2811 29.9931 15.0938 29.9215 14.9265C29.8499 14.7591 29.7564 14.6236 29.641 14.52C29.5296 14.4125 29.3884 14.3587 29.2173 14.3587C28.8911 14.3587 28.6325 14.5818 28.4415 15.0281C28.2546 15.4743 28.1611 16.1497 28.1611 17.0542C28.1611 17.5044 28.179 17.8909 28.2148 18.2136C28.2546 18.5364 28.3142 18.8014 28.3938 19.0086C28.4734 19.2157 28.5768 19.3672 28.7041 19.4628C28.8314 19.5624 28.9846 19.6122 29.1636 19.6122H29.2173C29.3884 19.6042 29.5296 19.5504 29.641 19.4508C29.7564 19.3512 29.8499 19.1998 29.9215 18.9966C29.9971 18.7894 30.0528 18.5284 30.0886 18.2136C30.1284 17.8989 30.1582 17.5204 30.1781 17.0781Z" fill="#89B9AD"/>
<path d="M35.2088 15.5719C35.3281 15.3369 35.4554 15.1516 35.5907 15.0161C35.726 14.8806 35.8513 14.775 35.9667 14.6993C36.098 14.6157 36.2312 14.5559 36.3665 14.52C36.5336 14.5041 36.6768 14.52 36.7962 14.5679C36.9195 14.6117 37.019 14.6774 37.0945 14.7651C37.1741 14.8527 37.2318 14.9563 37.2676 15.0759C37.3034 15.1954 37.3213 15.3209 37.3213 15.4524C37.3213 15.5799 37.3074 15.7094 37.2795 15.8409C37.2557 15.9724 37.2219 16.0979 37.1781 16.2174C37.1383 16.337 37.0886 16.4465 37.0289 16.5461C36.9732 16.6458 36.9155 16.7254 36.8558 16.7852H36.8678C36.7524 16.9087 36.643 16.9944 36.5396 17.0422C36.4361 17.09 36.3347 17.1139 36.2352 17.1139C36.0562 17.1139 35.911 17.0582 35.7996 16.9466C35.6882 16.835 35.6325 16.6836 35.6325 16.4924C35.6325 16.3449 35.6663 16.1836 35.7339 16.0082C35.8016 15.8329 35.915 15.6716 36.0741 15.5241C36.1775 15.4365 36.2849 15.3647 36.3963 15.309C36.4918 15.2612 36.5992 15.2233 36.7186 15.1954C36.8379 15.1675 36.9573 15.1755 37.0766 15.2193C37.0448 15.0679 36.9752 14.9444 36.8678 14.8488C36.7604 14.7531 36.6012 14.7173 36.3904 14.7412C36.2392 14.7731 36.092 14.8428 35.9488 14.9504C35.8254 15.042 35.6961 15.1795 35.5609 15.3628C35.4296 15.5421 35.3162 15.7871 35.2207 16.0979L35.2804 19.2596L36.3068 19.2297V19.4508L32.6308 19.5285V19.3074L33.4245 19.2954L33.4722 14.8846L32.8218 14.8488V14.6276L35.1969 14.7292L35.2088 15.5719Z" fill="#89B9AD"/>
<path d="M37.9061 14.7053L40.5617 14.6276L40.4722 19.158H41.4748V19.3791H37.7629V19.158H38.7535L38.7893 14.8966L37.9061 14.9265V14.7053ZM40.693 13.1095C40.6811 13.2649 40.6393 13.4124 40.5677 13.5518C40.5001 13.6873 40.4105 13.8068 40.2991 13.9104C40.1877 14.01 40.0604 14.0877 39.9172 14.1435C39.774 14.1993 39.6248 14.2232 39.4697 14.2152C39.3065 14.2112 39.1573 14.1754 39.0221 14.1076C38.8868 14.0399 38.7714 13.9523 38.676 13.8447C38.5805 13.7331 38.5089 13.6056 38.4611 13.4622C38.4134 13.3187 38.3955 13.1653 38.4074 13.002C38.4154 12.8466 38.4552 12.7011 38.5268 12.5657C38.5984 12.4302 38.6879 12.3146 38.7953 12.219C38.9067 12.1194 39.034 12.0437 39.1772 11.9919C39.3205 11.9361 39.4677 11.9102 39.6188 11.9142C39.778 11.9182 39.9252 11.954 40.0604 12.0218C40.1957 12.0855 40.3111 12.1712 40.4066 12.2788C40.506 12.3864 40.5796 12.5119 40.6274 12.6553C40.6791 12.7987 40.701 12.9502 40.693 13.1095Z" fill="#89B9AD"/>
<path d="M47.5677 14.6276L47.4185 19.1938L48.0391 19.1341L48.063 19.3552L45.7416 19.5644L45.7535 18.5842C45.6859 18.7316 45.6163 18.8611 45.5447 18.9727C45.473 19.0843 45.3994 19.1819 45.3239 19.2656C45.2522 19.3452 45.1806 19.413 45.109 19.4688C45.0374 19.5285 44.9698 19.5763 44.9061 19.6122C44.7549 19.6999 44.6058 19.7497 44.4586 19.7616C44.1124 19.7616 43.8101 19.6919 43.5515 19.5524C43.2929 19.417 43.0781 19.2357 42.907 19.0086C42.7359 18.7814 42.6066 18.5244 42.5191 18.2376C42.4355 17.9467 42.3938 17.6498 42.3938 17.347L42.5191 14.8009L41.8089 14.789V14.5679L44.4108 14.6037C44.3233 15.3329 44.2557 15.9485 44.2079 16.4505C44.1642 16.9486 44.1323 17.353 44.1124 17.6638C44.0886 18.0304 44.0746 18.3252 44.0707 18.5483C44.0707 18.7555 44.0866 18.9229 44.1184 19.0504C44.1502 19.1779 44.192 19.2775 44.2437 19.3492C44.2954 19.4209 44.3511 19.4688 44.4108 19.4927C44.4705 19.5206 44.5282 19.5365 44.5839 19.5405C44.6674 19.5206 44.7589 19.4807 44.8584 19.4209C44.9618 19.3612 45.0653 19.2695 45.1687 19.146C45.2761 19.0185 45.3796 18.8532 45.479 18.65C45.5785 18.4467 45.67 18.1957 45.7535 17.8969L45.7953 14.8368L44.9121 14.8249V14.6037L47.5677 14.6276Z" fill="#89B9AD"/>
<path d="M59.2821 19.4867L56.0894 19.415V19.1938L56.5668 19.2058C56.5946 18.377 56.6145 17.6897 56.6265 17.1438C56.6424 16.594 56.6543 16.1597 56.6623 15.8409C56.6702 15.4664 56.6742 15.1775 56.6742 14.9743C56.6782 14.8468 56.6663 14.7452 56.6384 14.6695C56.6145 14.5938 56.5787 14.538 56.531 14.5021C56.4872 14.4623 56.4355 14.4364 56.3758 14.4244C56.3201 14.4125 56.2644 14.4045 56.2087 14.4005C56.1332 14.4244 56.0337 14.4742 55.9104 14.5499C55.791 14.6216 55.6677 14.7412 55.5404 14.9085C55.417 15.0759 55.2997 15.299 55.1883 15.5779C55.0809 15.8568 54.9973 16.2134 54.9376 16.6478C54.9416 16.6756 54.9436 16.7075 54.9436 16.7434C54.9476 16.7792 54.9496 16.831 54.9496 16.8988C54.9536 16.9625 54.9556 17.0502 54.9556 17.1617C54.9595 17.2693 54.9615 17.4128 54.9615 17.5921C54.9655 17.7714 54.9675 17.9925 54.9675 18.2555C54.9675 18.5185 54.9675 18.8352 54.9675 19.2058L55.5881 19.2177V19.4389L52.6163 19.3672V19.146L53.1414 19.158C53.1573 18.4487 53.1732 17.855 53.1891 17.3769C53.2051 16.8948 53.219 16.5103 53.2309 16.2234C53.2468 15.8887 53.2588 15.6237 53.2667 15.4285C53.2588 15.1496 53.2289 14.9265 53.1772 14.7591C53.1295 14.5918 53.0698 14.4921 52.9982 14.4603C52.9425 14.4682 52.855 14.4961 52.7356 14.5439C52.6163 14.5878 52.487 14.6714 52.3477 14.795C52.2085 14.9145 52.0692 15.0838 51.93 15.303C51.7947 15.5182 51.6813 15.7991 51.5898 16.1457L51.5182 19.146H52.1567V19.3672H48.6955V19.146H49.6623V14.4483H48.4747V14.2272H51.6435L51.6137 15.4405C51.7132 15.2253 51.8206 15.046 51.9359 14.9025C52.0553 14.7591 52.1766 14.6416 52.3 14.5499C52.4273 14.4583 52.5526 14.3886 52.6759 14.3407C52.7993 14.2929 52.9146 14.2551 53.022 14.2272H53.0459C53.3165 14.2112 53.5512 14.2551 53.7501 14.3587C53.953 14.4623 54.1241 14.6017 54.2633 14.777C54.4065 14.9484 54.5239 15.1456 54.6154 15.3687C54.7069 15.5879 54.7785 15.807 54.8302 16.0262C54.8859 15.7991 54.9496 15.5978 55.0212 15.4225C55.0968 15.2472 55.1763 15.0938 55.2599 14.9623C55.3434 14.8308 55.427 14.7193 55.5105 14.6276C55.5981 14.536 55.6836 14.4603 55.7671 14.4005C55.9581 14.2571 56.159 14.1714 56.3699 14.1435C56.6245 14.1276 56.8532 14.1594 57.0561 14.2391C57.259 14.3148 57.4381 14.4204 57.5932 14.5559C57.7484 14.6914 57.8817 14.8488 57.9931 15.0281C58.1084 15.2074 58.2019 15.3926 58.2735 15.5839C58.3451 15.7751 58.3988 15.9644 58.4347 16.1517C58.4705 16.335 58.4904 16.5003 58.4943 16.6478C58.4943 17.0821 58.4963 17.5144 58.5003 17.9447C58.5043 18.371 58.5023 18.8093 58.4943 19.2596L59.2821 19.2715V19.4867Z" fill="#89B9AD"/>
</svg>
