<svg width="72" height="26" viewBox="0 0 72 26" fill="none" xmlns="http://www.w3.org/2000/svg">
<path d="M0.043487 10.0318L1.72498 10.0173L1.86994 0.297616L0 0.26858V0L3.87759 0.0435535L7.30582 6.72902L9.70485 0.0725892L13.9376 0.116143V0.384723L12.4373 0.370205C12.4325 0.413758 12.4252 0.505705 12.4155 0.646044C12.4107 0.781544 12.401 0.994472 12.3866 1.28483C12.3769 1.57519 12.3648 1.95507 12.3503 2.42448C12.3358 2.89389 12.3189 3.48186 12.2996 4.1884C12.2802 4.89009 12.2609 5.72487 12.2416 6.69272C12.2223 7.66058 12.2029 8.78813 12.1836 10.0754H13.9666V10.344H7.76243V10.0754H9.47292L9.64687 0.994472L6.20415 10.4964L2.09462 2.58418L1.98591 10.0173L3.59493 10.0028V10.2714L0.043487 10.3004V10.0318Z" fill="#89B9AD"/>
<path d="M21.4753 4.5586L21.2941 10.1044L22.0479 10.0318L22.0769 10.3004L19.2575 10.5545L19.272 9.36401C19.1899 9.54306 19.1053 9.70034 19.0183 9.83584C18.9313 9.97134 18.842 10.0899 18.7502 10.1915C18.6632 10.2883 18.5762 10.3706 18.4892 10.4383C18.4023 10.5109 18.3201 10.569 18.2428 10.6125C18.0592 10.719 17.878 10.7795 17.6992 10.794C17.2788 10.794 16.9116 10.7093 16.5975 10.54C16.2835 10.3754 16.0225 10.1552 15.8148 9.87939C15.607 9.60355 15.45 9.29142 15.3437 8.94299C15.2422 8.58972 15.1915 8.2292 15.1915 7.86141L15.3437 4.76911L14.4812 4.75459V4.48601L17.6412 4.52957C17.5349 5.41515 17.4528 6.16282 17.3948 6.77257C17.3417 7.37748 17.303 7.86867 17.2788 8.24613C17.2498 8.69135 17.2329 9.04945 17.2281 9.32045C17.2281 9.5721 17.2474 9.77535 17.2861 9.9302C17.3247 10.0851 17.3755 10.206 17.4383 10.2931C17.5011 10.3803 17.5688 10.4383 17.6412 10.4674C17.7137 10.5012 17.7838 10.5206 17.8514 10.5254C17.9529 10.5012 18.064 10.4528 18.1848 10.3803C18.3104 10.3077 18.4361 10.1964 18.5617 10.0463C18.6922 9.89149 18.8178 9.69066 18.9386 9.44386C19.0594 9.19705 19.1705 8.89218 19.272 8.52923L19.3227 4.81266L18.25 4.79815V4.52957L21.4753 4.5586Z" fill="#89B9AD"/>
<path d="M22.606 3.93433L26.2444 3.84723L26.2009 5.82891C26.2879 5.61115 26.387 5.40306 26.4981 5.20465C26.6141 5.0014 26.7445 4.81992 26.8895 4.66023C27.0344 4.50053 27.1963 4.36987 27.3751 4.26825C27.5539 4.16178 27.752 4.09645 27.9694 4.07225C28.2448 4.07225 28.5033 4.12307 28.7449 4.22469C28.9865 4.32148 29.2064 4.45698 29.4045 4.63119C29.6074 4.80057 29.7862 5.0014 29.9408 5.23368C30.0954 5.46597 30.2259 5.71277 30.3322 5.97409C30.4385 6.23541 30.5158 6.50399 30.5641 6.77983C30.6124 7.05083 30.6318 7.31699 30.6221 7.57831C30.6173 7.84931 30.61 8.12757 30.6004 8.41309C30.5907 8.65989 30.5786 8.93331 30.5641 9.23335C30.5545 9.52854 30.54 9.8189 30.5206 10.1044L31.5426 10.1189V10.3875L27.52 10.3004V10.0318L28.31 10.0463C28.426 8.75426 28.455 7.44523 28.397 6.11927C28.4115 5.51436 28.3777 5.07399 28.2956 4.79815C28.2182 4.52231 28.054 4.37955 27.8027 4.36987C27.7206 4.39407 27.6118 4.44004 27.4765 4.50779C27.3413 4.57554 27.1963 4.6941 27.0417 4.86348C26.8919 5.02801 26.7397 5.25546 26.5851 5.54581C26.4353 5.83133 26.3024 6.20154 26.1864 6.65643L26.114 10.0318H26.8677V10.3004H23.0989V10.0318H23.7512L23.8961 4.17388L22.606 4.20291V3.93433Z" fill="#89B9AD"/>
<path d="M37.9134 6.22815C37.9134 6.36849 37.8917 6.50641 37.8482 6.64191C37.8047 6.77257 37.7419 6.89113 37.6598 6.9976C37.5776 7.09922 37.4737 7.18149 37.3481 7.2444C37.2273 7.30731 37.0848 7.33877 36.9205 7.33877C36.8287 7.33877 36.7296 7.32183 36.6233 7.28796C36.517 7.24924 36.418 7.19359 36.3262 7.121C36.2392 7.04841 36.1643 6.95888 36.1015 6.85242C36.0435 6.74112 36.0145 6.61288 36.0145 6.4677C36.0145 6.38543 36.0242 6.30074 36.0435 6.21364C36.0628 6.12169 36.0821 6.02974 36.1015 5.9378C36.1256 5.84585 36.1474 5.75874 36.1667 5.67648C36.186 5.59421 36.1957 5.5192 36.1957 5.45145C36.1957 5.10786 36.1135 4.83928 35.9493 4.64571C35.785 4.45214 35.5796 4.35535 35.3332 4.35535C35.1786 4.35535 35.036 4.44004 34.9056 4.60941C34.7751 4.77395 34.6616 5.0014 34.5649 5.29175C34.4731 5.58211 34.4006 5.92086 34.3475 6.308C34.2992 6.6903 34.275 7.09922 34.275 7.53476C34.275 8.54133 34.3934 9.29142 34.6302 9.78502C34.8669 10.2786 35.1762 10.5254 35.5579 10.5254C35.7898 10.5254 36.0048 10.4722 36.2029 10.3657C36.4059 10.2641 36.5919 10.1286 36.761 9.95924C36.9301 9.78986 37.0775 9.60113 37.2031 9.39304C37.3336 9.18011 37.4423 8.96719 37.5293 8.75426L37.7975 8.84136C37.6912 9.17044 37.5559 9.44869 37.3916 9.67614C37.2273 9.89875 37.0509 10.0851 36.8625 10.2351C36.674 10.3851 36.4832 10.5012 36.2899 10.5835C36.1015 10.6658 35.9251 10.7263 35.7608 10.765C35.6014 10.8085 35.4661 10.8327 35.3549 10.8376C35.2438 10.8472 35.1762 10.8521 35.152 10.8521C34.6785 10.8521 34.2509 10.7529 33.8691 10.5545C33.4922 10.3609 33.1709 10.1141 32.9052 9.81406C32.6443 9.51402 32.4437 9.18253 32.3036 8.81959C32.1635 8.45664 32.0934 8.10821 32.0934 7.7743C32.0934 7.5517 32.1224 7.30731 32.1804 7.04115C32.2384 6.77015 32.3253 6.49915 32.4413 6.22815C32.5621 5.95231 32.7119 5.68615 32.8907 5.42967C33.0695 5.17319 33.2772 4.94574 33.514 4.74733C33.7508 4.54892 34.0165 4.38923 34.3113 4.26825C34.606 4.14726 34.9322 4.08677 35.2897 4.08677C35.7246 4.08677 36.1063 4.1521 36.4349 4.28276C36.7634 4.41342 37.0364 4.5828 37.2539 4.79089C37.4761 4.99898 37.6404 5.22884 37.7467 5.48048C37.8579 5.73213 37.9134 5.98135 37.9134 6.22815Z" fill="#89B9AD"/>
<path d="M38.3048 0.159696L41.9432 0.0580714L41.8635 5.88698C41.936 5.69825 42.0278 5.50226 42.1389 5.29901C42.25 5.09576 42.3781 4.90703 42.5231 4.73282C42.6728 4.5586 42.842 4.411 43.0304 4.29002C43.2188 4.16904 43.429 4.09645 43.661 4.07225C43.9364 4.07225 44.1949 4.12307 44.4365 4.22469C44.6781 4.32148 44.8979 4.45698 45.096 4.63119C45.299 4.80057 45.4778 5.0014 45.6324 5.23368C45.7918 5.46597 45.9247 5.71277 46.031 5.97409C46.1373 6.23541 46.2146 6.50399 46.2629 6.77983C46.3113 7.05083 46.3306 7.31699 46.3209 7.57831C46.3161 7.84931 46.3088 8.12757 46.2992 8.41309C46.2895 8.65989 46.2774 8.93331 46.2629 9.23335C46.2533 9.52854 46.2388 9.8189 46.2194 10.1044L47.2414 10.1189V10.3875L43.2188 10.3004V10.0318L44.0016 10.0463C44.0644 9.39788 44.1031 8.74942 44.1176 8.10096C44.1321 7.44765 44.1248 6.78709 44.0958 6.11927C44.1007 5.81439 44.0958 5.55307 44.0813 5.33531C44.0717 5.11754 44.0427 4.93849 43.9944 4.79815C43.9509 4.65297 43.8881 4.5465 43.8059 4.47875C43.7286 4.411 43.6271 4.37471 43.5015 4.36987C43.4194 4.39407 43.3082 4.44246 43.1681 4.51505C43.0328 4.58764 42.8879 4.71346 42.7332 4.89251C42.5786 5.07157 42.4216 5.31353 42.2621 5.6184C42.1075 5.92328 41.9698 6.31526 41.849 6.79435L41.8055 10.0318H42.5665V10.3004H38.7977V10.0318H39.45L39.5949 0.399241L38.3048 0.428276V0.159696Z" fill="#89B9AD"/>
<path d="M47.7632 4.65297L50.9885 4.5586L50.8798 10.0609H52.0974V10.3294H47.5893V10.0609H48.7924L48.8359 4.88525L47.7632 4.92155V4.65297ZM51.148 2.71484C51.1335 2.90357 51.0827 3.08262 50.9958 3.252C50.9136 3.41653 50.8049 3.56171 50.6696 3.68753C50.5343 3.80851 50.3797 3.90288 50.2058 3.97063C50.0318 4.03838 49.8506 4.06741 49.6622 4.05774C49.4641 4.0529 49.2829 4.00934 49.1186 3.92708C48.9543 3.84481 48.8142 3.73834 48.6982 3.60768C48.5822 3.47218 48.4953 3.31733 48.4373 3.14311C48.3793 2.9689 48.3576 2.78259 48.3721 2.58418C48.3817 2.39544 48.43 2.21881 48.517 2.05427C48.604 1.88974 48.7127 1.7494 48.8432 1.63326C48.9785 1.51228 49.1331 1.42033 49.307 1.35742C49.481 1.28967 49.6598 1.25821 49.8434 1.26305C50.0366 1.26789 50.2154 1.31144 50.3797 1.39371C50.544 1.47114 50.6841 1.57519 50.8001 1.70585C50.9209 1.83651 51.0103 1.98894 51.0683 2.16316C51.1311 2.33737 51.1576 2.52127 51.148 2.71484Z" fill="#89B9AD"/>
<path d="M58.606 6.67095C58.606 6.92743 58.5239 7.15972 58.3596 7.3678C58.1953 7.57105 57.9827 7.74527 57.7218 7.89045C57.4657 8.03562 57.1782 8.15177 56.8593 8.23887C56.5452 8.32114 56.236 8.3647 55.9315 8.36954C55.9122 8.36954 55.8687 8.36712 55.8011 8.36228C55.7334 8.35744 55.6513 8.34292 55.5547 8.31872C55.458 8.28969 55.3493 8.24613 55.2285 8.18806C55.1077 8.12999 54.9869 8.0453 54.8661 7.934C54.8806 8.3647 54.9193 8.7349 54.9821 9.04461C55.0497 9.34949 55.1367 9.60113 55.243 9.79954C55.3541 9.99311 55.4822 10.1359 55.6271 10.2278C55.7769 10.3149 55.9388 10.3585 56.1127 10.3585C56.2142 10.3585 56.3495 10.3246 56.5186 10.2569C56.6926 10.1891 56.8713 10.0851 57.055 9.94472C57.2434 9.80438 57.427 9.62533 57.6058 9.40756C57.7846 9.18979 57.9344 8.92847 58.0552 8.6236L58.2654 8.08644L58.5263 8.17354L58.4103 8.5002C58.304 8.78571 58.1639 9.05671 57.9899 9.31319C57.816 9.56968 57.613 9.79954 57.3811 10.0028C57.154 10.2012 56.9003 10.3609 56.6201 10.4819C56.3398 10.6077 56.0403 10.6803 55.7214 10.6996C55.1657 10.6803 54.6946 10.5811 54.308 10.402C53.9215 10.223 53.6074 9.99553 53.3658 9.71969C53.1242 9.44386 52.9479 9.13656 52.8367 8.79781C52.7304 8.45906 52.6773 8.11789 52.6773 7.7743C52.6773 7.54686 52.7111 7.30005 52.7787 7.03389C52.8512 6.76289 52.9551 6.49189 53.0904 6.22089C53.2257 5.94506 53.39 5.6789 53.5832 5.42241C53.7814 5.16593 54.0036 4.93849 54.25 4.74008C54.5013 4.54166 54.7743 4.38439 55.0691 4.26825C55.3686 4.14726 55.69 4.08677 56.033 4.08677C56.3471 4.09645 56.6273 4.14484 56.8738 4.23195C57.125 4.31422 57.3449 4.42552 57.5333 4.56586C57.7266 4.70136 57.8909 4.85622 58.0262 5.03043C58.1615 5.20465 58.2726 5.38612 58.3596 5.57485C58.4465 5.75874 58.5094 5.94748 58.548 6.14105C58.5867 6.32978 58.606 6.50641 58.606 6.67095ZM55.9171 4.35535C55.7624 4.36503 55.6175 4.45214 55.4822 4.61667C55.3517 4.78121 55.2382 5.00624 55.1415 5.29175C55.0497 5.57243 54.9772 5.90392 54.9241 6.28622C54.8709 6.66853 54.8444 7.07987 54.8444 7.52024C54.9652 7.66058 55.086 7.76946 55.2068 7.84689C55.3276 7.92432 55.4387 7.98239 55.5402 8.02111C55.6416 8.05498 55.7262 8.07676 55.7938 8.08644C55.8615 8.09612 55.9026 8.10096 55.9171 8.10096C56.1055 8.09612 56.2601 8.05498 56.3809 7.97755C56.5065 7.90013 56.6032 7.79366 56.6708 7.65816C56.7433 7.52266 56.794 7.36055 56.823 7.17181C56.852 6.98308 56.8665 6.77257 56.8665 6.54029C56.8665 6.24993 56.8472 5.97409 56.8085 5.71277C56.7747 5.44661 56.7191 5.21432 56.6418 5.01591C56.5694 4.81266 56.4727 4.65297 56.3519 4.53683C56.2311 4.41584 56.0862 4.35535 55.9171 4.35535Z" fill="#89B9AD"/>
<path d="M62.0777 10.5835C61.783 10.5835 61.4979 10.5448 61.2225 10.4674C60.9471 10.3948 60.6958 10.2907 60.4687 10.1552C60.2464 10.0149 60.0556 9.85036 59.8961 9.66162C59.7415 9.46805 59.6376 9.25512 59.5845 9.02284C59.5845 8.88734 59.6038 8.76152 59.6424 8.64537C59.6859 8.52923 59.7439 8.42761 59.8164 8.3405C59.8937 8.25339 59.9831 8.18564 60.0846 8.13725C60.186 8.08402 60.2947 8.0574 60.4107 8.0574C60.5508 8.0574 60.6885 8.09854 60.8238 8.1808C60.9591 8.26307 61.0751 8.38889 61.1717 8.55827C61.249 8.69861 61.3046 8.83895 61.3384 8.97928C61.3771 9.11962 61.4061 9.25512 61.4254 9.38578C61.4496 9.51644 61.4689 9.63985 61.4834 9.75599C61.5027 9.86729 61.5317 9.96408 61.5704 10.0463C61.6139 10.1286 61.6743 10.1939 61.7516 10.2423C61.8289 10.2907 61.9376 10.3149 62.0777 10.3149C62.3048 10.3149 62.5005 10.2931 62.6648 10.2496C62.8291 10.206 62.9644 10.1456 63.0707 10.0681C63.177 9.99069 63.2543 9.90359 63.3026 9.8068C63.3557 9.71002 63.3823 9.60597 63.3823 9.49467C63.3823 9.36885 63.3485 9.24061 63.2809 9.10995C63.2132 8.97928 63.1142 8.8583 62.9837 8.747C62.8532 8.63086 62.6889 8.52681 62.4908 8.43486C62.2976 8.34292 62.0705 8.27517 61.8095 8.23162C61.5148 8.18322 61.2418 8.11063 60.9905 8.01385C60.7441 7.91706 60.5291 7.78882 60.3455 7.62913C60.1619 7.46459 60.0169 7.26618 59.9106 7.03389C59.8091 6.79677 59.7584 6.51367 59.7584 6.1846C59.7584 5.85553 59.8309 5.56517 59.9758 5.31353C60.1256 5.05705 60.3165 4.8417 60.5484 4.66749C60.7803 4.49327 61.0413 4.36019 61.3312 4.26825C61.6211 4.1763 61.9086 4.13033 62.1937 4.13033C62.3145 4.13033 62.4546 4.14 62.6141 4.15936C62.7735 4.17388 62.9354 4.20291 63.0997 4.24647C63.2688 4.29002 63.4355 4.34809 63.5998 4.42068C63.764 4.49327 63.909 4.58522 64.0346 4.69652C64.1651 4.80782 64.269 4.94091 64.3463 5.09576C64.4236 5.25062 64.4622 5.42967 64.4622 5.63292C64.4622 5.74906 64.4405 5.85795 64.397 5.95957C64.3584 6.0612 64.3028 6.15072 64.2303 6.22815C64.1627 6.30074 64.0805 6.35881 63.9839 6.40237C63.8921 6.44592 63.7955 6.4677 63.694 6.4677C63.4621 6.4677 63.2857 6.41689 63.1649 6.31526C63.0489 6.21364 62.9644 6.08539 62.9112 5.93054C62.8581 5.77568 62.8218 5.61115 62.8025 5.43693C62.788 5.25788 62.7638 5.09092 62.73 4.93607C62.6962 4.78121 62.6406 4.65297 62.5633 4.55134C62.4908 4.44972 62.3676 4.39891 62.1937 4.39891C61.8651 4.4231 61.6066 4.50295 61.4182 4.63845C61.2345 4.76911 61.1427 4.94574 61.1427 5.16835C61.1427 5.31353 61.1741 5.45629 61.237 5.59663C61.2998 5.73213 61.3892 5.85795 61.5051 5.97409C61.6259 6.09023 61.7709 6.19186 61.94 6.27897C62.1091 6.36123 62.2976 6.41931 62.5053 6.45318C62.7904 6.50157 63.0634 6.579 63.3243 6.68547C63.5853 6.79193 63.8148 6.92743 64.0129 7.09197C64.2158 7.2565 64.3753 7.45007 64.4912 7.67268C64.612 7.89045 64.6724 8.13241 64.6724 8.39857C64.6724 8.66473 64.6024 8.92847 64.4622 9.18979C64.327 9.45111 64.1409 9.68582 63.9042 9.89391C63.6674 10.0972 63.392 10.2617 63.0779 10.3875C62.7638 10.5182 62.4304 10.5835 62.0777 10.5835Z" fill="#89B9AD"/>
<path d="M0.0289913 12.738L8.82062 12.7234L8.74089 17.899H8.47272C8.48238 17.2893 8.44615 16.7521 8.364 16.2876C8.28669 15.8182 8.18039 15.4117 8.0451 15.0681C7.91464 14.7245 7.76243 14.4365 7.58848 14.2043C7.41454 13.9671 7.23576 13.7711 7.05214 13.6163C6.86853 13.4614 6.68734 13.3429 6.50856 13.2606C6.33461 13.1783 6.17757 13.1178 6.03745 13.0791C5.90215 13.0404 5.79102 13.0162 5.70405 13.0065C5.6219 12.9969 5.58083 12.992 5.58083 12.992C5.44071 12.992 5.29575 12.9944 5.14596 12.9993C5.00101 13.0041 4.85847 13.0065 4.71834 13.0065C4.71351 13.0646 4.70626 13.188 4.6966 13.3767C4.69177 13.5655 4.6821 13.8486 4.66761 14.226C4.65311 14.5987 4.6362 15.0826 4.61687 15.6778C4.59754 16.2682 4.57822 16.9941 4.55889 17.8555C4.60238 17.8507 4.68452 17.8434 4.80532 17.8337C4.93094 17.824 5.07107 17.7974 5.22569 17.7539C5.38514 17.7055 5.54943 17.6329 5.71854 17.5361C5.88766 17.4345 6.04228 17.2941 6.1824 17.1151C6.32253 16.9312 6.43608 16.6989 6.52305 16.4182C6.61486 16.1375 6.65835 15.794 6.65351 15.3875H6.91444L6.84196 20.926H6.57379C6.55929 20.4518 6.49889 20.0187 6.39259 19.6267C6.3491 19.4621 6.29112 19.2976 6.21864 19.1331C6.14616 18.9685 6.05919 18.8185 5.95772 18.683C5.85625 18.5427 5.73545 18.4241 5.59533 18.3273C5.4552 18.2305 5.29334 18.1652 5.10972 18.1313L4.55889 18.1168L4.47191 22.6972H6.35635C6.46265 22.6875 6.60761 22.6609 6.79122 22.6173C6.97483 22.5738 7.17053 22.5012 7.3783 22.3996C7.5909 22.298 7.80592 22.16 8.02335 21.9858C8.24079 21.8116 8.4389 21.5866 8.61768 21.3107C8.80129 21.0301 8.95108 20.6937 9.06704 20.3017C9.18784 19.9049 9.2579 19.4355 9.27723 18.8935H9.5454L9.42943 22.9658H0.043487V22.6972H1.75398L1.79746 13.0065H0.0289913V12.738Z" fill="#89B9AD"/>
<path d="M23.4395 23.0964L19.5619 23.0093V22.7407L20.1417 22.7553C20.1756 21.7487 20.1997 20.9139 20.2142 20.2509C20.2335 19.5831 20.248 19.0556 20.2577 18.6685C20.2674 18.2136 20.2722 17.8628 20.2722 17.6159C20.277 17.4611 20.2625 17.3377 20.2287 17.2457C20.1997 17.1538 20.1562 17.086 20.0982 17.0425C20.0451 16.9941 19.9823 16.9626 19.9098 16.9481C19.8422 16.9336 19.7745 16.9239 19.7069 16.9191C19.6151 16.9481 19.4943 17.0086 19.3445 17.1006C19.1995 17.1877 19.0497 17.3328 18.8951 17.5361C18.7453 17.7393 18.6028 18.0103 18.4675 18.3491C18.337 18.6878 18.2356 19.121 18.1631 19.6484C18.1679 19.6823 18.1703 19.721 18.1703 19.7646C18.1752 19.8081 18.1776 19.8711 18.1776 19.9533C18.1824 20.0307 18.1848 20.1372 18.1848 20.2727C18.1897 20.4034 18.1921 20.5776 18.1921 20.7954C18.1969 21.0131 18.1993 21.2817 18.1993 21.6011C18.1993 21.9205 18.1993 22.3052 18.1993 22.7553L18.9531 22.7698V23.0384L15.3437 22.9513V22.6827L15.9815 22.6972C16.0008 21.8358 16.0201 21.1147 16.0395 20.534C16.0588 19.9485 16.0757 19.4815 16.0902 19.1331C16.1095 18.7266 16.124 18.4048 16.1337 18.1676C16.124 17.8289 16.0878 17.5579 16.025 17.3546C15.967 17.1514 15.8945 17.0304 15.8075 16.9917C15.7399 17.0014 15.6336 17.0352 15.4886 17.0933C15.3437 17.1465 15.1866 17.2482 15.0175 17.3982C14.8484 17.5434 14.6793 17.749 14.5102 18.0152C14.3459 18.2765 14.2082 18.6177 14.097 19.0387L14.0101 22.6827H14.7856V22.9513H10.5818V22.6827H11.756V16.9772H10.3137V16.7086H14.1623L14.126 18.1821C14.2468 17.9208 14.3773 17.7031 14.5174 17.5288C14.6624 17.3546 14.8097 17.2119 14.9595 17.1006C15.1142 16.9893 15.2664 16.9046 15.4161 16.8465C15.5659 16.7884 15.7061 16.7425 15.8365 16.7086H15.8655C16.1941 16.6892 16.4792 16.7425 16.7208 16.8683C16.9672 16.9941 17.175 17.1635 17.3441 17.3764C17.518 17.5845 17.6606 17.824 17.7717 18.095C17.8828 18.3612 17.9698 18.6274 18.0326 18.8935C18.1003 18.6177 18.1776 18.3733 18.2645 18.1604C18.3564 17.9474 18.453 17.7611 18.5545 17.6014C18.6559 17.4417 18.7574 17.3062 18.8589 17.1949C18.9652 17.0836 19.0691 16.9917 19.1705 16.9191C19.4025 16.7449 19.6465 16.6408 19.9026 16.607C20.2118 16.5876 20.4896 16.6263 20.7361 16.7231C20.9825 16.815 21.1999 16.9433 21.3884 17.1078C21.5768 17.2724 21.7387 17.4635 21.874 17.6813C22.0141 17.899 22.1276 18.1241 22.2146 18.3564C22.3016 18.5886 22.3668 18.8185 22.4103 19.046C22.4538 19.2686 22.478 19.4694 22.4828 19.6484C22.4828 20.1759 22.4852 20.701 22.49 21.2236C22.4949 21.7414 22.4925 22.2738 22.4828 22.8206L23.4395 22.8351V23.0964Z" fill="#89B9AD"/>
<path d="M23.3815 25.7314L24.6716 25.7169L24.8383 16.7231L23.5917 16.6941V16.4255L27.0344 16.4836L26.9764 17.9426C27.0489 17.8555 27.1286 17.766 27.2156 17.674C27.3074 17.5772 27.4065 17.4901 27.5128 17.4127C27.6191 17.3353 27.7326 17.2724 27.8534 17.224C27.9742 17.1756 28.1023 17.1514 28.2376 17.1514C28.4163 17.1514 28.612 17.1804 28.8246 17.2385C29.0421 17.2966 29.2595 17.3837 29.4769 17.4998C29.6944 17.6111 29.9046 17.7514 30.1075 17.9208C30.3153 18.0854 30.4965 18.2765 30.6511 18.4943C30.8106 18.712 30.9362 18.9564 31.028 19.2274C31.1246 19.4936 31.1729 19.7839 31.1729 20.0985C31.1729 20.4131 31.115 20.7107 30.999 20.9913C30.8879 21.2672 30.7381 21.5237 30.5496 21.7608C30.366 21.9931 30.1534 22.2036 29.9118 22.3923C29.6751 22.5762 29.4262 22.7335 29.1653 22.8641C28.9092 22.9948 28.6531 23.094 28.397 23.1618C28.1458 23.2295 27.9138 23.2634 27.7012 23.2634C27.6722 23.2585 27.6239 23.2489 27.5563 23.2344C27.4935 23.2247 27.4186 23.2053 27.3316 23.1763C27.2494 23.1472 27.1601 23.1061 27.0634 23.0529C26.9716 23.0045 26.8822 22.9416 26.7952 22.8641L26.6793 25.7024H28.0564V25.971L23.3815 26V25.7314ZM27.7592 22.9948C27.9283 22.9948 28.0757 22.9464 28.2013 22.8496C28.3318 22.7528 28.4429 22.627 28.5347 22.4722C28.6314 22.3125 28.7111 22.1334 28.7739 21.935C28.8367 21.7318 28.8875 21.5261 28.9261 21.318C28.9648 21.1051 28.9913 20.8994 29.0058 20.701C29.0203 20.4977 29.0276 20.3163 29.0276 20.1566C29.0276 20.0017 29.0252 19.8275 29.0203 19.6339C29.0155 19.4355 29.001 19.2371 28.9768 19.0387C28.9575 18.8354 28.9285 18.637 28.8899 18.4435C28.8561 18.2499 28.8053 18.0805 28.7377 17.9353C28.6749 17.7853 28.5951 17.6643 28.4985 17.5724C28.4019 17.4804 28.2859 17.4345 28.1506 17.4345C28.025 17.4345 27.9042 17.4683 27.7882 17.5361C27.6722 17.6038 27.5635 17.691 27.462 17.7974C27.3654 17.899 27.2736 18.0152 27.1866 18.1458C27.1045 18.2765 27.0296 18.4023 26.9619 18.5233L26.8097 22.4286C26.8822 22.5496 26.9644 22.6464 27.0562 22.719C27.148 22.7916 27.235 22.8472 27.3171 22.8859C27.4041 22.9246 27.4814 22.9513 27.549 22.9658C27.6215 22.9803 27.6771 22.99 27.7157 22.9948H27.7592Z" fill="#89B9AD"/>
<path d="M38.9716 20.2872C38.9716 20.6211 38.9136 20.9333 38.7977 21.2236C38.6865 21.5091 38.5343 21.7729 38.341 22.0149C38.1526 22.252 37.9352 22.4649 37.6887 22.6536C37.4472 22.8375 37.1935 22.9924 36.9277 23.1182C36.6668 23.2489 36.4059 23.3481 36.145 23.4158C35.884 23.4836 35.6424 23.5175 35.4202 23.5175H35.3477C35.1254 23.5126 34.8887 23.4763 34.6374 23.4086C34.391 23.3408 34.1446 23.2416 33.8981 23.111C33.6565 22.9851 33.4246 22.8279 33.2023 22.6391C32.9849 22.4504 32.7916 22.2302 32.6225 21.9786C32.4534 21.7221 32.3181 21.4366 32.2166 21.122C32.1152 20.8026 32.0644 20.4518 32.0644 20.0695C32.0644 19.6775 32.1248 19.3194 32.2456 18.9951C32.3664 18.6661 32.5235 18.3733 32.7167 18.1168C32.9148 17.8603 33.1371 17.6377 33.3835 17.449C33.6348 17.2603 33.886 17.103 34.1373 16.9772C34.3934 16.8513 34.6374 16.7594 34.8693 16.7013C35.1061 16.6384 35.3115 16.607 35.4854 16.607H35.5434C35.8381 16.6166 36.128 16.6699 36.4131 16.7667C36.6982 16.8586 36.9664 16.9868 37.2176 17.1514C37.4737 17.3159 37.7081 17.5119 37.9207 17.7393C38.1381 17.962 38.3241 18.2088 38.4788 18.4798C38.6334 18.7508 38.7542 19.0387 38.8412 19.3436C38.9281 19.6484 38.9716 19.963 38.9716 20.2872ZM36.6523 20.1711C36.6523 20.0501 36.6523 19.8832 36.6523 19.6702C36.6523 19.4573 36.6426 19.2298 36.6233 18.9879C36.6088 18.7411 36.5798 18.4919 36.5363 18.2402C36.4929 17.9886 36.4276 17.7611 36.3406 17.5579C36.2537 17.3546 36.1401 17.1901 36 17.0643C35.8647 16.9336 35.6932 16.8683 35.4854 16.8683C35.0892 16.8683 34.7751 17.1393 34.5432 17.6813C34.3161 18.2233 34.2025 19.0435 34.2025 20.1421C34.2025 20.6889 34.2243 21.1583 34.2678 21.5503C34.3161 21.9423 34.3886 22.2641 34.4852 22.5157C34.5818 22.7674 34.7075 22.9513 34.8621 23.0674C35.0167 23.1884 35.2027 23.2489 35.4202 23.2489H35.4854C35.6932 23.2392 35.8647 23.1739 36 23.0529C36.1401 22.9319 36.2537 22.748 36.3406 22.5012C36.4325 22.2496 36.5001 21.9326 36.5436 21.5503C36.5919 21.168 36.6281 20.7082 36.6523 20.1711Z" fill="#89B9AD"/>
<path d="M42.7622 18.3418C42.9072 18.0563 43.0618 17.8313 43.2261 17.6668C43.3904 17.5022 43.5426 17.374 43.6827 17.282C43.8422 17.1804 44.004 17.1078 44.1683 17.0643C44.3713 17.0449 44.5452 17.0643 44.6902 17.1223C44.8399 17.1756 44.9607 17.2554 45.0525 17.3619C45.1492 17.4683 45.2192 17.5942 45.2627 17.7393C45.3062 17.8845 45.328 18.037 45.328 18.1967C45.328 18.3515 45.3111 18.5088 45.2772 18.6685C45.2482 18.8282 45.2072 18.9806 45.154 19.1258C45.1057 19.271 45.0453 19.4041 44.9728 19.525C44.9052 19.646 44.8351 19.7428 44.7626 19.8154H44.7771C44.637 19.9654 44.5041 20.0695 44.3785 20.1275C44.2529 20.1856 44.1297 20.2146 44.0089 20.2146C43.7914 20.2146 43.6151 20.1469 43.4798 20.0114C43.3445 19.8759 43.2768 19.692 43.2768 19.4597C43.2768 19.2807 43.3179 19.0847 43.4 18.8717C43.4822 18.6588 43.6199 18.4628 43.8132 18.2838C43.9388 18.1773 44.0693 18.0902 44.2046 18.0224C44.3205 17.9644 44.451 17.9184 44.5959 17.8845C44.7409 17.8507 44.8858 17.8603 45.0308 17.9136C44.9921 17.7297 44.9076 17.5797 44.7771 17.4635C44.6467 17.3474 44.4534 17.3038 44.1973 17.3328C44.0137 17.3716 43.8349 17.4563 43.661 17.5869C43.5112 17.6982 43.3541 17.8652 43.1899 18.0878C43.0304 18.3055 42.8927 18.6032 42.7767 18.9806L42.8492 22.8206L44.0958 22.7843V23.0529L39.6312 23.1472V22.8787L40.5951 22.8641L40.6531 17.5071L39.8631 17.4635V17.1949L42.7477 17.3183L42.7622 18.3418Z" fill="#89B9AD"/>
<path d="M46.0383 17.2893L49.2635 17.1949L49.1548 22.6972H50.3725V22.9658H45.8643V22.6972H47.0674L47.1109 17.5216L46.0383 17.5579V17.2893ZM49.423 15.3512C49.4085 15.5399 49.3578 15.719 49.2708 15.8883C49.1886 16.0529 49.0799 16.198 48.9446 16.3239C48.8093 16.4448 48.6547 16.5392 48.4808 16.607C48.3068 16.6747 48.1256 16.7037 47.9372 16.6941C47.7391 16.6892 47.5579 16.6457 47.3936 16.5634C47.2293 16.4811 47.0892 16.3747 46.9732 16.244C46.8573 16.1085 46.7703 15.9537 46.7123 15.7794C46.6543 15.6052 46.6326 15.4189 46.6471 15.2205C46.6567 15.0318 46.7051 14.8551 46.792 14.6906C46.879 14.5261 46.9877 14.3857 47.1182 14.2696C47.2535 14.1486 47.4081 14.0567 47.582 13.9937C47.756 13.926 47.9348 13.8945 48.1184 13.8994C48.3117 13.9042 48.4904 13.9478 48.6547 14.03C48.819 14.1075 48.9591 14.2115 49.0751 14.3422C49.1959 14.4728 49.2853 14.6253 49.3433 14.7995C49.4061 14.9737 49.4327 15.1576 49.423 15.3512Z" fill="#89B9AD"/>
<path d="M57.7725 17.1949L57.5913 22.7407L58.3451 22.6682L58.3741 22.9367L55.5547 23.1908L55.5692 22.0003C55.487 22.1794 55.4025 22.3367 55.3155 22.4722C55.2285 22.6077 55.1391 22.7262 55.0473 22.8279C54.9603 22.9246 54.8734 23.0069 54.7864 23.0747C54.6994 23.1472 54.6173 23.2053 54.54 23.2489C54.3564 23.3553 54.1752 23.4158 53.9964 23.4303C53.576 23.4303 53.2088 23.3457 52.8947 23.1763C52.5806 23.0117 52.3197 22.7916 52.1119 22.5157C51.9042 22.2399 51.7471 21.9277 51.6408 21.5793C51.5394 21.2261 51.4886 20.8655 51.4886 20.4977L51.6408 17.4054L50.7783 17.3909V17.1223L53.9384 17.1659C53.8321 18.0515 53.75 18.7992 53.692 19.4089C53.6388 20.0138 53.6002 20.505 53.576 20.8825C53.547 21.3277 53.5301 21.6858 53.5253 21.9568C53.5253 22.2084 53.5446 22.4117 53.5832 22.5665C53.6219 22.7214 53.6726 22.8424 53.7355 22.9295C53.7983 23.0166 53.8659 23.0747 53.9384 23.1037C54.0109 23.1376 54.0809 23.1569 54.1486 23.1618C54.25 23.1376 54.3612 23.0892 54.482 23.0166C54.6076 22.944 54.7332 22.8327 54.8589 22.6827C54.9893 22.5278 55.115 22.327 55.2358 22.0802C55.3566 21.8334 55.4677 21.5285 55.5692 21.1656L55.6199 17.449L54.5472 17.4345V17.1659L57.7725 17.1949Z" fill="#89B9AD"/>
<path d="M72 23.0964L68.1224 23.0093V22.7407L68.7022 22.7553C68.7361 21.7487 68.7602 20.9139 68.7747 20.2509C68.794 19.5831 68.8085 19.0556 68.8182 18.6685C68.8279 18.2136 68.8327 17.8628 68.8327 17.6159C68.8375 17.4611 68.823 17.3377 68.7892 17.2457C68.7602 17.1538 68.7167 17.086 68.6587 17.0425C68.6056 16.9941 68.5428 16.9626 68.4703 16.9481C68.4027 16.9336 68.335 16.9239 68.2674 16.9191C68.1756 16.9481 68.0548 17.0086 67.905 17.1006C67.76 17.1877 67.6102 17.3328 67.4556 17.5361C67.3058 17.7393 67.1633 18.0103 67.028 18.3491C66.8975 18.6878 66.7961 19.121 66.7236 19.6484C66.7284 19.6823 66.7308 19.721 66.7308 19.7646C66.7357 19.8081 66.7381 19.8711 66.7381 19.9533C66.7429 20.0307 66.7453 20.1372 66.7453 20.2727C66.7502 20.4034 66.7526 20.5776 66.7526 20.7954C66.7574 21.0131 66.7598 21.2817 66.7598 21.6011C66.7598 21.9205 66.7598 22.3052 66.7598 22.7553L67.5136 22.7698V23.0384L63.9042 22.9513V22.6827L64.542 22.6972C64.5613 21.8358 64.5806 21.1147 64.6 20.534C64.6193 19.9485 64.6362 19.4815 64.6507 19.1331C64.67 18.7266 64.6845 18.4048 64.6942 18.1676C64.6845 17.8289 64.6483 17.5579 64.5855 17.3546C64.5275 17.1514 64.455 17.0304 64.368 16.9917C64.3004 17.0014 64.1941 17.0352 64.0491 17.0933C63.9042 17.1465 63.7471 17.2482 63.578 17.3982C63.4089 17.5434 63.2398 17.749 63.0707 18.0152C62.9064 18.2765 62.7687 18.6177 62.6575 19.0387L62.5706 22.6827H63.3461V22.9513H59.1423V22.6827H60.3165V16.9772H58.8742V16.7086H62.7228L62.6865 18.1821C62.8073 17.9208 62.9378 17.7031 63.0779 17.5288C63.2229 17.3546 63.3702 17.2119 63.52 17.1006C63.6747 16.9893 63.8269 16.9046 63.9766 16.8465C64.1264 16.7884 64.2666 16.7425 64.397 16.7086H64.426C64.7546 16.6892 65.0397 16.7425 65.2813 16.8683C65.5277 16.9941 65.7355 17.1635 65.9046 17.3764C66.0785 17.5845 66.2211 17.824 66.3322 18.095C66.4433 18.3612 66.5303 18.6274 66.5931 18.8935C66.6608 18.6177 66.7381 18.3733 66.825 18.1604C66.9169 17.9474 67.0135 17.7611 67.115 17.6014C67.2164 17.4417 67.3179 17.3062 67.4194 17.1949C67.5257 17.0836 67.6296 16.9917 67.731 16.9191C67.963 16.7449 68.207 16.6408 68.4631 16.607C68.7723 16.5876 69.0501 16.6263 69.2966 16.7231C69.543 16.815 69.7604 16.9433 69.9489 17.1078C70.1373 17.2724 70.2992 17.4635 70.4345 17.6813C70.5746 17.899 70.6881 18.1241 70.7751 18.3564C70.8621 18.5886 70.9273 18.8185 70.9708 19.046C71.0143 19.2686 71.0385 19.4694 71.0433 19.6484C71.0433 20.1759 71.0457 20.701 71.0505 21.2236C71.0554 21.7414 71.0529 22.2738 71.0433 22.8206L72 22.8351V23.0964Z" fill="#89B9AD"/>
</svg>
