<svg width="119" height="24" viewBox="0 0 119 24" fill="none" xmlns="http://www.w3.org/2000/svg">
<path d="M15.7891 8.0031C15.7891 9.16117 15.5099 10.2469 14.9515 11.2602C14.4139 12.2735 13.5556 13.0903 12.3769 13.7107C11.2188 14.3311 9.75055 14.6413 7.97208 14.6413H4.34277V22.9546H0V1.30283H7.97208C9.64715 1.30283 11.0741 1.59235 12.2528 2.17138C13.4316 2.75042 14.3105 3.54659 14.8895 4.55991C15.4892 5.57322 15.7891 6.72095 15.7891 8.0031ZM7.78596 11.1361C8.9854 11.1361 9.87463 10.8673 10.4537 10.3296C11.0327 9.77123 11.3222 8.99573 11.3222 8.0031C11.3222 5.89376 10.1435 4.83908 7.78596 4.83908H4.34277V11.1361H7.78596Z" fill="#F7EFE5"/>
<path d="M22.9922 8.43738C23.5506 7.52746 24.2743 6.81401 25.1636 6.29701C26.0735 5.78002 27.1075 5.52152 28.2656 5.52152V10.0814H27.1178C25.753 10.0814 24.719 10.402 24.0159 11.043C23.3334 11.6841 22.9922 12.8008 22.9922 14.3932V22.9546H18.6494V5.76968H22.9922V8.43738Z" fill="#F7EFE5"/>
<path d="M38.5985 23.2338C36.9441 23.2338 35.4552 22.8719 34.1317 22.1481C32.8082 21.4036 31.7638 20.3593 30.9987 19.0151C30.2542 17.6709 29.882 16.1199 29.882 14.3622C29.882 12.6044 30.2646 11.0534 31.0297 9.70919C31.8155 8.365 32.8806 7.33101 34.2248 6.60721C35.5689 5.86274 37.0682 5.4905 38.7226 5.4905C40.377 5.4905 41.8763 5.86274 43.2205 6.60721C44.5647 7.33101 45.6193 8.365 46.3845 9.70919C47.1703 11.0534 47.5633 12.6044 47.5633 14.3622C47.5633 16.1199 47.16 17.6709 46.3535 19.0151C45.5676 20.3593 44.4923 21.4036 43.1274 22.1481C41.7832 22.8719 40.2736 23.2338 38.5985 23.2338ZM38.5985 19.4494C39.3844 19.4494 40.1185 19.2633 40.8009 18.891C41.5041 18.4981 42.0624 17.9191 42.476 17.1539C42.8896 16.3888 43.0964 15.4582 43.0964 14.3622C43.0964 12.7284 42.6621 11.4773 41.7936 10.6088C40.9457 9.71953 39.9014 9.27491 38.6606 9.27491C37.4198 9.27491 36.3755 9.71953 35.5276 10.6088C34.7004 11.4773 34.2868 12.7284 34.2868 14.3622C34.2868 15.9959 34.69 17.2573 35.4966 18.1466C36.3238 19.0151 37.3577 19.4494 38.5985 19.4494Z" fill="#F7EFE5"/>
<path d="M49.4092 14.3001C49.4092 12.563 49.7504 11.0224 50.4328 9.67817C51.1359 8.33398 52.0872 7.29999 53.2866 6.57619C54.4861 5.8524 55.8199 5.4905 57.2882 5.4905C58.4049 5.4905 59.4699 5.73866 60.4832 6.23497C61.4965 6.71061 62.3031 7.35169 62.9028 8.1582V0H67.3076V22.9546H62.9028V20.411C62.3651 21.2589 61.6103 21.9413 60.6383 22.4583C59.6664 22.9753 58.5393 23.2338 57.2572 23.2338C55.8096 23.2338 54.4861 22.8616 53.2866 22.1171C52.0872 21.3726 51.1359 20.3283 50.4328 18.9841C49.7504 17.6192 49.4092 16.0579 49.4092 14.3001ZM62.9338 14.3622C62.9338 13.3075 62.727 12.4079 62.3134 11.6634C61.8998 10.8983 61.3414 10.3192 60.6383 9.92633C59.9352 9.51273 59.1804 9.30593 58.3739 9.30593C57.5674 9.30593 56.8229 9.50239 56.1405 9.89531C55.458 10.2882 54.8997 10.8673 54.4654 11.6324C54.0518 12.3769 53.845 13.2661 53.845 14.3001C53.845 15.3341 54.0518 16.244 54.4654 17.0299C54.8997 17.795 55.458 18.3844 56.1405 18.798C56.8436 19.2116 57.5881 19.4184 58.3739 19.4184C59.1804 19.4184 59.9352 19.2219 60.6383 18.829C61.3414 18.4154 61.8998 17.8364 62.3134 17.0919C62.727 16.3267 62.9338 15.4168 62.9338 14.3622Z" fill="#F7EFE5"/>
<path d="M87.5494 5.76968V22.9546H83.1757V20.7833C82.6173 21.5277 81.8832 22.1171 80.9733 22.5514C80.084 22.965 79.1121 23.1718 78.0574 23.1718C76.7132 23.1718 75.5241 22.8926 74.4901 22.3342C73.4561 21.7552 72.6393 20.9177 72.0396 19.8216C71.4605 18.7049 71.171 17.3814 71.171 15.8511V5.76968H75.5138V15.2307C75.5138 16.5956 75.855 17.6503 76.5374 18.3947C77.2199 19.1185 78.1504 19.4804 79.3292 19.4804C80.5286 19.4804 81.4696 19.1185 82.152 18.3947C82.8344 17.6503 83.1757 16.5956 83.1757 15.2307V5.76968H87.5494Z" fill="#F7EFE5"/>
<path d="M90.4946 14.3622C90.4946 12.5837 90.8565 11.0327 91.5803 9.70919C92.3041 8.365 93.3071 7.33101 94.5892 6.60721C95.8714 5.86274 97.3396 5.4905 98.994 5.4905C101.124 5.4905 102.882 6.02818 104.267 7.10353C105.674 8.1582 106.615 9.64715 107.09 11.5704H102.406C102.158 10.8259 101.734 10.2469 101.134 9.83327C100.555 9.39899 99.8316 9.18185 98.963 9.18185C97.7222 9.18185 96.7399 9.63681 96.0161 10.5467C95.2923 11.436 94.9305 12.7078 94.9305 14.3622C94.9305 15.9959 95.2923 17.2677 96.0161 18.1776C96.7399 19.0668 97.7222 19.5114 98.963 19.5114C100.721 19.5114 101.869 18.7256 102.406 17.1539H107.09C106.615 19.0151 105.674 20.4937 104.267 21.5898C102.861 22.6858 101.103 23.2338 98.994 23.2338C97.3396 23.2338 95.8714 22.8719 94.5892 22.1481C93.3071 21.4036 92.3041 20.3697 91.5803 19.0461C90.8565 17.702 90.4946 16.1406 90.4946 14.3622Z" fill="#F7EFE5"/>
<path d="M115.105 9.33695V17.6503C115.105 18.2293 115.239 18.6532 115.508 18.9221C115.798 19.1702 116.273 19.2943 116.935 19.2943H118.951V22.9546H116.222C112.561 22.9546 110.731 21.1762 110.731 17.6192V9.33695H108.684V5.76968H110.731V1.51997H115.105V5.76968H118.951V9.33695H115.105Z" fill="#F7EFE5"/>
</svg>
