<svg width="32" height="31" viewBox="0 0 32 31" fill="none" xmlns="http://www.w3.org/2000/svg">
<path d="M0.588623 3.19225C0.588623 1.42922 2.01784 0 3.78087 0H28.0419C29.805 0 31.2342 1.42922 31.2342 3.19225V27.4533C31.2342 29.2164 29.805 30.6456 28.0419 30.6456H3.78087C2.01784 30.6456 0.588623 29.2164 0.588623 27.4533V3.19225Z" fill="white"/>
<path d="M20.1252 19.5366C19.3456 19.5366 18.7206 20.1616 18.7206 20.9411C18.7206 21.3137 18.8686 21.6709 19.132 21.9343C19.3954 22.1977 19.7527 22.3457 20.1252 22.3457C20.4977 22.3457 20.855 22.1977 21.1184 21.9343C21.3818 21.6709 21.5298 21.3137 21.5298 20.9411C21.5298 20.5686 21.3818 20.2114 21.1184 19.9479C20.855 19.6845 20.4977 19.5366 20.1252 19.5366ZM8.88848 8.29984V9.70443H10.2931L12.8213 15.0348L11.8662 16.7555C11.7609 16.9521 11.6977 17.1839 11.6977 17.4297C11.6977 17.8022 11.8456 18.1595 12.1091 18.4229C12.3725 18.6863 12.7297 18.8343 13.1023 18.8343H21.5298V17.4297H13.3972C13.3506 17.4297 13.306 17.4112 13.2731 17.3782C13.2401 17.3453 13.2216 17.3007 13.2216 17.2541C13.2216 17.219 13.2287 17.1909 13.2427 17.1698L13.8748 16.0251H19.1069C19.6336 16.0251 20.0971 15.7301 20.3359 15.3017L22.8501 10.7579C22.8993 10.6455 22.9344 10.5261 22.9344 10.4067C22.9344 10.2205 22.8604 10.0418 22.7287 9.91013C22.597 9.77842 22.4183 9.70443 22.2321 9.70443H11.8451L11.185 8.29984M13.1023 19.5366C12.3227 19.5366 11.6977 20.1616 11.6977 20.9411C11.6977 21.3137 11.8456 21.6709 12.1091 21.9343C12.3725 22.1977 12.7297 22.3457 13.1023 22.3457C13.4748 22.3457 13.832 22.1977 14.0954 21.9343C14.3589 21.6709 14.5068 21.3137 14.5068 20.9411C14.5068 20.5686 14.3589 20.2114 14.0954 19.9479C13.832 19.6845 13.4748 19.5366 13.1023 19.5366Z" fill="#89B9AD" fill-opacity="0.5"/>
</svg>
