<svg width="363" height="53" viewBox="0 0 363 53" fill="none" xmlns="http://www.w3.org/2000/svg">
<path d="M241 10C241 4.47715 245.477 0 251 0H353C358.523 0 363 4.47715 363 10V43C363 48.5229 358.523 53 353 53H251C245.477 53 241 48.5228 241 43V10Z" fill="#89B9AD"/>
<path d="M275.2 33.14C274.227 33.14 273.347 32.9733 272.56 32.64C271.787 32.3067 271.173 31.8267 270.72 31.2C270.267 30.5733 270.033 29.8333 270.02 28.98H273.02C273.06 29.5533 273.26 30.0067 273.62 30.34C273.993 30.6733 274.5 30.84 275.14 30.84C275.793 30.84 276.307 30.6867 276.68 30.38C277.053 30.06 277.24 29.6467 277.24 29.14C277.24 28.7267 277.113 28.3867 276.86 28.12C276.607 27.8533 276.287 27.6467 275.9 27.5C275.527 27.34 275.007 27.1667 274.34 26.98C273.433 26.7133 272.693 26.4533 272.12 26.2C271.56 25.9333 271.073 25.54 270.66 25.02C270.26 24.4867 270.06 23.78 270.06 22.9C270.06 22.0733 270.267 21.3533 270.68 20.74C271.093 20.1267 271.673 19.66 272.42 19.34C273.167 19.0067 274.02 18.84 274.98 18.84C276.42 18.84 277.587 19.1933 278.48 19.9C279.387 20.5933 279.887 21.5667 279.98 22.82H276.9C276.873 22.34 276.667 21.9467 276.28 21.64C275.907 21.32 275.407 21.16 274.78 21.16C274.233 21.16 273.793 21.3 273.46 21.58C273.14 21.86 272.98 22.2667 272.98 22.8C272.98 23.1733 273.1 23.4867 273.34 23.74C273.593 23.98 273.9 24.18 274.26 24.34C274.633 24.4867 275.153 24.66 275.82 24.86C276.727 25.1267 277.467 25.3933 278.04 25.66C278.613 25.9267 279.107 26.3267 279.52 26.86C279.933 27.3933 280.14 28.0933 280.14 28.96C280.14 29.7067 279.947 30.4 279.56 31.04C279.173 31.68 278.607 32.1933 277.86 32.58C277.113 32.9533 276.227 33.14 275.2 33.14Z" fill="white"/>
<path d="M283.758 20.6C283.264 20.6 282.851 20.4467 282.517 20.14C282.197 19.82 282.038 19.4267 282.038 18.96C282.038 18.4933 282.197 18.1067 282.517 17.8C282.851 17.48 283.264 17.32 283.758 17.32C284.251 17.32 284.658 17.48 284.978 17.8C285.311 18.1067 285.478 18.4933 285.478 18.96C285.478 19.4267 285.311 19.82 284.978 20.14C284.658 20.4467 284.251 20.6 283.758 20.6ZM285.138 21.92V33H282.337V21.92H285.138Z" fill="white"/>
<path d="M292.014 21.74C292.841 21.74 293.567 21.9067 294.194 22.24C294.821 22.56 295.314 22.98 295.674 23.5V21.92H298.494V33.08C298.494 34.1067 298.287 35.02 297.874 35.82C297.461 36.6333 296.841 37.2733 296.014 37.74C295.187 38.22 294.187 38.46 293.014 38.46C291.441 38.46 290.147 38.0933 289.134 37.36C288.134 36.6267 287.567 35.6267 287.434 34.36H290.214C290.361 34.8667 290.674 35.2667 291.154 35.56C291.647 35.8667 292.241 36.02 292.934 36.02C293.747 36.02 294.407 35.7733 294.914 35.28C295.421 34.8 295.674 34.0667 295.674 33.08V31.36C295.314 31.88 294.814 32.3133 294.174 32.66C293.547 33.0067 292.827 33.18 292.014 33.18C291.081 33.18 290.227 32.94 289.454 32.46C288.681 31.98 288.067 31.3067 287.614 30.44C287.174 29.56 286.954 28.5533 286.954 27.42C286.954 26.3 287.174 25.3067 287.614 24.44C288.067 23.5733 288.674 22.9067 289.434 22.44C290.207 21.9733 291.067 21.74 292.014 21.74ZM295.674 27.46C295.674 26.78 295.541 26.2 295.274 25.72C295.007 25.2267 294.647 24.8533 294.194 24.6C293.741 24.3333 293.254 24.2 292.734 24.2C292.214 24.2 291.734 24.3267 291.294 24.58C290.854 24.8333 290.494 25.2067 290.214 25.7C289.947 26.18 289.814 26.7533 289.814 27.42C289.814 28.0867 289.947 28.6733 290.214 29.18C290.494 29.6733 290.854 30.0533 291.294 30.32C291.747 30.5867 292.227 30.72 292.734 30.72C293.254 30.72 293.741 30.5933 294.194 30.34C294.647 30.0733 295.007 29.7 295.274 29.22C295.541 28.7267 295.674 28.14 295.674 27.46Z" fill="white"/>
<path d="M307.139 21.76C308.459 21.76 309.525 22.18 310.339 23.02C311.152 23.8467 311.559 25.0067 311.559 26.5V33H308.759V26.88C308.759 26 308.539 25.3267 308.099 24.86C307.659 24.38 307.059 24.14 306.299 24.14C305.525 24.14 304.912 24.38 304.459 24.86C304.019 25.3267 303.799 26 303.799 26.88V33H300.999V21.92H303.799V23.3C304.172 22.82 304.645 22.4467 305.219 22.18C305.805 21.9 306.445 21.76 307.139 21.76Z" fill="white"/>
<path d="M321.287 19.04V27.68C321.287 28.6267 321.534 29.3533 322.027 29.86C322.52 30.3533 323.214 30.6 324.107 30.6C325.014 30.6 325.714 30.3533 326.207 29.86C326.7 29.3533 326.947 28.6267 326.947 27.68V19.04H329.767V27.66C329.767 28.8467 329.507 29.8533 328.987 30.68C328.48 31.4933 327.794 32.1067 326.927 32.52C326.074 32.9333 325.12 33.14 324.067 33.14C323.027 33.14 322.08 32.9333 321.227 32.52C320.387 32.1067 319.72 31.4933 319.227 30.68C318.734 29.8533 318.487 28.8467 318.487 27.66V19.04H321.287Z" fill="white"/>
<path d="M335.042 23.52C335.402 23.0133 335.896 22.5933 336.522 22.26C337.162 21.9133 337.889 21.74 338.702 21.74C339.649 21.74 340.502 21.9733 341.262 22.44C342.036 22.9067 342.642 23.5733 343.082 24.44C343.536 25.2933 343.762 26.2867 343.762 27.42C343.762 28.5533 343.536 29.56 343.082 30.44C342.642 31.3067 342.036 31.98 341.262 32.46C340.502 32.94 339.649 33.18 338.702 33.18C337.889 33.18 337.169 33.0133 336.542 32.68C335.929 32.3467 335.429 31.9267 335.042 31.42V38.28H332.242V21.92H335.042V23.52ZM340.902 27.42C340.902 26.7533 340.762 26.18 340.482 25.7C340.216 25.2067 339.856 24.8333 339.402 24.58C338.962 24.3267 338.482 24.2 337.962 24.2C337.456 24.2 336.976 24.3333 336.522 24.6C336.082 24.8533 335.722 25.2267 335.442 25.72C335.176 26.2133 335.042 26.7933 335.042 27.46C335.042 28.1267 335.176 28.7067 335.442 29.2C335.722 29.6933 336.082 30.0733 336.522 30.34C336.976 30.5933 337.456 30.72 337.962 30.72C338.482 30.72 338.962 30.5867 339.402 30.32C339.856 30.0533 340.216 29.6733 340.482 29.18C340.762 28.6867 340.902 28.1 340.902 27.42Z" fill="white"/>
<path d="M156.2 33.14C155.227 33.14 154.347 32.9733 153.56 32.64C152.787 32.3067 152.173 31.8267 151.72 31.2C151.267 30.5733 151.033 29.8333 151.02 28.98H154.02C154.06 29.5533 154.26 30.0067 154.62 30.34C154.993 30.6733 155.5 30.84 156.14 30.84C156.793 30.84 157.307 30.6867 157.68 30.38C158.053 30.06 158.24 29.6467 158.24 29.14C158.24 28.7267 158.113 28.3867 157.86 28.12C157.607 27.8533 157.287 27.6467 156.9 27.5C156.527 27.34 156.007 27.1667 155.34 26.98C154.433 26.7133 153.693 26.4533 153.12 26.2C152.56 25.9333 152.073 25.54 151.66 25.02C151.26 24.4867 151.06 23.78 151.06 22.9C151.06 22.0733 151.267 21.3533 151.68 20.74C152.093 20.1267 152.673 19.66 153.42 19.34C154.167 19.0067 155.02 18.84 155.98 18.84C157.42 18.84 158.587 19.1933 159.48 19.9C160.387 20.5933 160.887 21.5667 160.98 22.82H157.9C157.873 22.34 157.667 21.9467 157.28 21.64C156.907 21.32 156.407 21.16 155.78 21.16C155.233 21.16 154.793 21.3 154.46 21.58C154.14 21.86 153.98 22.2667 153.98 22.8C153.98 23.1733 154.1 23.4867 154.34 23.74C154.593 23.98 154.9 24.18 155.26 24.34C155.633 24.4867 156.153 24.66 156.82 24.86C157.727 25.1267 158.467 25.3933 159.04 25.66C159.613 25.9267 160.107 26.3267 160.52 26.86C160.933 27.3933 161.14 28.0933 161.14 28.96C161.14 29.7067 160.947 30.4 160.56 31.04C160.173 31.68 159.607 32.1933 158.86 32.58C158.113 32.9533 157.227 33.14 156.2 33.14Z" fill="#4D4D4D"/>
<path d="M164.758 20.6C164.264 20.6 163.851 20.4467 163.518 20.14C163.197 19.82 163.038 19.4267 163.038 18.96C163.038 18.4933 163.197 18.1067 163.518 17.8C163.851 17.48 164.264 17.32 164.758 17.32C165.251 17.32 165.657 17.48 165.977 17.8C166.311 18.1067 166.477 18.4933 166.477 18.96C166.477 19.4267 166.311 19.82 165.977 20.14C165.657 20.4467 165.251 20.6 164.758 20.6ZM166.137 21.92V33H163.337V21.92H166.137Z" fill="#4D4D4D"/>
<path d="M173.014 21.74C173.841 21.74 174.567 21.9067 175.194 22.24C175.821 22.56 176.314 22.98 176.674 23.5V21.92H179.494V33.08C179.494 34.1067 179.287 35.02 178.874 35.82C178.461 36.6333 177.841 37.2733 177.014 37.74C176.187 38.22 175.187 38.46 174.014 38.46C172.441 38.46 171.147 38.0933 170.134 37.36C169.134 36.6267 168.567 35.6267 168.434 34.36H171.214C171.361 34.8667 171.674 35.2667 172.154 35.56C172.647 35.8667 173.241 36.02 173.934 36.02C174.747 36.02 175.407 35.7733 175.914 35.28C176.421 34.8 176.674 34.0667 176.674 33.08V31.36C176.314 31.88 175.814 32.3133 175.174 32.66C174.547 33.0067 173.827 33.18 173.014 33.18C172.081 33.18 171.227 32.94 170.454 32.46C169.681 31.98 169.067 31.3067 168.614 30.44C168.174 29.56 167.954 28.5533 167.954 27.42C167.954 26.3 168.174 25.3067 168.614 24.44C169.067 23.5733 169.674 22.9067 170.434 22.44C171.207 21.9733 172.067 21.74 173.014 21.74ZM176.674 27.46C176.674 26.78 176.541 26.2 176.274 25.72C176.007 25.2267 175.647 24.8533 175.194 24.6C174.741 24.3333 174.254 24.2 173.734 24.2C173.214 24.2 172.734 24.3267 172.294 24.58C171.854 24.8333 171.494 25.2067 171.214 25.7C170.947 26.18 170.814 26.7533 170.814 27.42C170.814 28.0867 170.947 28.6733 171.214 29.18C171.494 29.6733 171.854 30.0533 172.294 30.32C172.747 30.5867 173.227 30.72 173.734 30.72C174.254 30.72 174.741 30.5933 175.194 30.34C175.647 30.0733 176.007 29.7 176.274 29.22C176.541 28.7267 176.674 28.14 176.674 27.46Z" fill="#4D4D4D"/>
<path d="M188.139 21.76C189.459 21.76 190.525 22.18 191.339 23.02C192.152 23.8467 192.559 25.0067 192.559 26.5V33H189.759V26.88C189.759 26 189.539 25.3267 189.099 24.86C188.659 24.38 188.059 24.14 187.299 24.14C186.525 24.14 185.912 24.38 185.459 24.86C185.019 25.3267 184.799 26 184.799 26.88V33H181.999V21.92H184.799V23.3C185.172 22.82 185.645 22.4467 186.219 22.18C186.805 21.9 187.445 21.76 188.139 21.76Z" fill="#4D4D4D"/>
<path d="M202.327 19.04V33H199.527V19.04H202.327Z" fill="#4D4D4D"/>
<path d="M211.003 21.76C212.323 21.76 213.39 22.18 214.203 23.02C215.017 23.8467 215.423 25.0067 215.423 26.5V33H212.623V26.88C212.623 26 212.403 25.3267 211.963 24.86C211.523 24.38 210.923 24.14 210.163 24.14C209.39 24.14 208.777 24.38 208.323 24.86C207.883 25.3267 207.663 26 207.663 26.88V33H204.863V21.92H207.663V23.3C208.037 22.82 208.51 22.4467 209.083 22.18C209.67 21.9 210.31 21.76 211.003 21.76Z" fill="#4D4D4D"/>
<path d="M0 7C0 4.23858 2.23858 2 5 2H43C45.7614 2 48 4.23858 48 7V45C48 47.7614 45.7614 50 43 50H5C2.23858 50 0 47.7614 0 45V7Z" fill="#89B9AD"/>
<path d="M30.6 32.6C29.379 32.6 28.4 33.579 28.4 34.8C28.4 35.3835 28.6318 35.9431 29.0444 36.3556C29.457 36.7682 30.0166 37 30.6 37C31.1835 37 31.7431 36.7682 32.1557 36.3556C32.5682 35.9431 32.8 35.3835 32.8 34.8C32.8 34.2165 32.5682 33.6569 32.1557 33.2444C31.7431 32.8318 31.1835 32.6 30.6 32.6ZM13 15V17.2H15.2L19.16 25.549L17.664 28.244C17.499 28.552 17.4 28.915 17.4 29.3C17.4 29.8835 17.6318 30.4431 18.0444 30.8556C18.457 31.2682 19.0166 31.5 19.6 31.5H32.8V29.3H20.062C19.9891 29.3 19.9191 29.271 19.8676 29.2195C19.816 29.1679 19.787 29.0979 19.787 29.025C19.787 28.97 19.798 28.926 19.82 28.893L20.81 27.1H29.005C29.83 27.1 30.556 26.638 30.93 25.967L34.868 18.85C34.945 18.674 35 18.487 35 18.3C35 18.0083 34.8841 17.7285 34.6778 17.5222C34.4716 17.3159 34.1918 17.2 33.9 17.2H17.631L16.597 15M19.6 32.6C18.379 32.6 17.4 33.579 17.4 34.8C17.4 35.3835 17.6318 35.9431 18.0444 36.3556C18.457 36.7682 19.0166 37 19.6 37C20.1835 37 20.7431 36.7682 21.1557 36.3556C21.5682 35.9431 21.8 35.3835 21.8 34.8C21.8 34.2165 21.5682 33.6569 21.1557 33.2444C20.7431 32.8318 20.1835 32.6 19.6 32.6Z" fill="white"/>
<path d="M78 7C78 4.23858 80.2386 2 83 2H121C123.761 2 126 4.23858 126 7V45C126 47.7614 123.761 50 121 50H83C80.2386 50 78 47.7614 78 45V7Z" fill="#89B9AD"/>
<path fill-rule="evenodd" clip-rule="evenodd" d="M97.5556 20.4444C97.5556 19.2657 98.0238 18.1352 98.8573 17.3017C99.6908 16.4683 100.821 16 102 16C103.179 16 104.309 16.4683 105.143 17.3017C105.976 18.1352 106.444 19.2657 106.444 20.4444C106.444 21.6232 105.976 22.7536 105.143 23.5871C104.309 24.4206 103.179 24.8889 102 24.8889C100.821 24.8889 99.6908 24.4206 98.8573 23.5871C98.0238 22.7536 97.5556 21.6232 97.5556 20.4444ZM97.5556 27.1111C96.0821 27.1111 94.6691 27.6964 93.6272 28.7383C92.5853 29.7802 92 31.1932 92 32.6667C92 33.5507 92.3512 34.3986 92.9763 35.0237C93.6014 35.6488 94.4493 36 95.3333 36H108.667C109.551 36 110.399 35.6488 111.024 35.0237C111.649 34.3986 112 33.5507 112 32.6667C112 31.1932 111.415 29.7802 110.373 28.7383C109.331 27.6964 107.918 27.1111 106.444 27.1111H97.5556Z" fill="white"/>
</svg>
