<svg width="93" height="14" viewBox="0 0 93 14" fill="none" xmlns="http://www.w3.org/2000/svg">
<path d="M85.3173 10.6949L89.4679 13.2L88.3664 8.47856L92.0334 5.30185L87.2045 4.89216L85.3173 0.439392L83.4301 4.89216L78.6012 5.30185L82.2682 8.47856L81.1668 13.2L85.3173 10.6949Z" fill="#4D4D4D" fill-opacity="0.59"/>
<path d="M65.8406 10.6949L69.9912 13.2L68.8897 8.47856L72.5567 5.30185L67.7279 4.89216L65.8406 0.439392L63.9534 4.89216L59.1245 5.30185L62.7915 8.47856L61.6901 13.2L65.8406 10.6949Z" fill="#4D4D4D" fill-opacity="0.59"/>
<path d="M46.364 10.6949L50.5145 13.2L49.4131 8.47856L53.0801 5.30185L48.2512 4.89216L46.364 0.439392L44.4767 4.89216L39.6479 5.30185L43.3149 8.47856L42.2134 13.2L46.364 10.6949Z" fill="#89B9AD" fill-opacity="0.7"/>
<path d="M26.8873 10.6949L31.0378 13.2L29.9364 8.47856L33.6034 5.30185L28.7745 4.89216L26.8873 0.439392L25.0001 4.89216L20.1712 5.30185L23.8382 8.47856L22.7367 13.2L26.8873 10.6949Z" fill="#89B9AD" fill-opacity="0.7"/>
<path d="M7.41056 10.6949L11.5611 13.2L10.4597 8.47856L14.1267 5.30185L9.29778 4.89216L7.41056 0.439392L5.52333 4.89216L0.694458 5.30185L4.36145 8.47856L3.26001 13.2L7.41056 10.6949Z" fill="#89B9AD" fill-opacity="0.7"/>
</svg>
