<svg width="27" height="27" viewBox="0 0 27 27" fill="none" xmlns="http://www.w3.org/2000/svg">
<path d="M0.652344 2.74454C0.652344 1.22877 1.88112 0 3.39688 0H24.2554C25.7711 0 26.9999 1.22877 26.9999 2.74454V23.603C26.9999 25.1188 25.7712 26.3476 24.2554 26.3476H3.39688C1.88112 26.3476 0.652344 25.1188 0.652344 23.603V2.74454Z" fill="#89B9AD"/>
<path d="M17.4489 16.7966C16.7787 16.7966 16.2413 17.334 16.2413 18.0042C16.2413 18.3245 16.3686 18.6316 16.595 18.8581C16.8215 19.0845 17.1287 19.2118 17.4489 19.2118C17.7692 19.2118 18.0764 19.0845 18.3028 18.8581C18.5293 18.6316 18.6565 18.3245 18.6565 18.0042C18.6565 17.6839 18.5293 17.3767 18.3028 17.1503C18.0764 16.9238 17.7692 16.7966 17.4489 16.7966ZM7.78816 7.1358V8.3434H8.99576L11.1694 12.9262L10.3483 14.4055C10.2577 14.5746 10.2034 14.7739 10.2034 14.9852C10.2034 15.3055 10.3306 15.6126 10.5571 15.8391C10.7835 16.0656 11.0907 16.1928 11.411 16.1928H18.6565V14.9852H11.6646C11.6245 14.9852 11.5861 14.9693 11.5578 14.941C11.5295 14.9127 11.5136 14.8743 11.5136 14.8342C11.5136 14.804 11.5196 14.7799 11.5317 14.7618L12.0751 13.7776H16.5734C17.0263 13.7776 17.4248 13.524 17.6301 13.1557L19.7917 9.2491C19.8339 9.15249 19.8641 9.04984 19.8641 8.9472C19.8641 8.78706 19.8005 8.63348 19.6873 8.52025C19.5741 8.40701 19.4205 8.3434 19.2603 8.3434H10.3302L9.76258 7.1358M11.411 16.7966C10.7407 16.7966 10.2034 17.334 10.2034 18.0042C10.2034 18.3245 10.3306 18.6316 10.5571 18.8581C10.7835 19.0845 11.0907 19.2118 11.411 19.2118C11.7312 19.2118 12.0384 19.0845 12.2649 18.8581C12.4913 18.6316 12.6186 18.3245 12.6186 18.0042C12.6186 17.6839 12.4913 17.3767 12.2649 17.1503C12.0384 16.9238 11.7312 16.7966 11.411 16.7966Z" fill="white"/>
</svg>
